<?xml version="1.0" encoding="UTF-8" standalone="no"?>
<!-- Created with Inkscape (http://www.inkscape.org/) -->

<svg
   xmlns:svg="http://www.w3.org/2000/svg"
   xmlns="http://www.w3.org/2000/svg"
   version="1.1"
   width="147.02629"
   height="142.34866"
   id="svg5004">
  <defs
     id="defs5006" />
  <g
     transform="matrix(1.25,0,0,1.25,-523.96976,-744.06041)"
     id="g9578">
    <path
       d="m 532.58203,629.33594 c 12.05078,28.79687 -2.62109,62.36718 -32.77344,74.98828 -30.15234,12.62109 -64.36718,-0.48828 -76.41797,-29.28516 -12.05078,-28.79297 2.6211,-62.36719 32.77344,-74.98828 30.15235,-12.62109 64.36328,0.49219 76.41797,29.28516"
       id="path8570"
       style="fill:#000000;fill-opacity:1;fill-rule:nonzero;stroke:none" />
    <path
       d="m 530.15625,641.47266 c 0.26953,0.67187 0.53906,1.35546 0.8125,2.05078 1.75391,4.48828 0.375,11.80078 -5.66406,10.45703 -7.25391,-1.61328 -12.39844,-0.54297 -21.12891,2.70312 -10.70312,3.98047 -19.875,11.94141 -22.48437,19.25391 -1.1875,3.32812 0.70703,7.95312 1.54687,11.26562 0.96875,3.8125 1.89453,7.7461 1.28125,11.69532 -1.6875,10.90234 -8.52344,10.75 -16.10937,9.64843 -12.65235,-1.83984 -21.34766,-13.92578 -26.21875,-25.5664 -10.53125,-25.15625 1.32812,-54.08594 26.48437,-64.61719 17.98047,-7.52734 39.26172,-3.55469 53.31641,9.95703 4.05468,3.89844 6.16797,8.22266 8.16406,13.15235"
       id="path8588"
       style="fill:#000000;fill-opacity:1;fill-rule:nonzero;stroke:none" />
  </g>
</svg>
