<?xml version="1.0" encoding="UTF-8" standalone="no"?>
<!-- Created with Inkscape (http://www.inkscape.org/) -->

<svg
   xmlns:svg="http://www.w3.org/2000/svg"
   xmlns="http://www.w3.org/2000/svg"
   version="1.1"
   width="116.85059"
   height="60.357445"
   id="svg5004">
  <defs
     id="defs5006" />
  <path
     d="m 116.85059,46.005862 c 0,0 -2.41211,-24.003912 -4.98536,-27.915037 -1.31348,-1.982425 -2.68554,-4.350588 -7.4121,-5.0586 C 99.726563,12.3291 22.758788,0 22.758788,0 c 0,0 -8.76465,0.151363 -11.601563,9.721675 C 8.3251878,19.272462 0,59.2627 0,59.2627 c 0,0 1.71875,1.4746 5.6250003,1.000975 C 10.371088,59.70215 24.414063,38.222662 29.790038,37.548825 47.070313,35.395512 65.415038,25.976562 67.846675,26.240237 69.423825,26.411137 52.338863,36.5918 36.147463,38.007812 29.7998,38.56445 64.7998,46.757812 85.356438,42.885737 104.3457,39.311525 109.27734,28.31055 109.27734,28.31055 l 7.57325,17.695312 z m 0,0"
     id="path8742"
     style="fill:#5e3511;fill-opacity:1;fill-rule:nonzero;stroke:none" />
</svg>
