<?xml version="1.0" encoding="UTF-8" standalone="no"?>
<!-- Created with Inkscape (http://www.inkscape.org/) -->

<svg
   xmlns:svg="http://www.w3.org/2000/svg"
   xmlns="http://www.w3.org/2000/svg"
   version="1.1"
   width="86.422661"
   height="73.748901"
   id="svg5004">
  <defs
     id="defs5006" />
  <g
     transform="matrix(1.25,0,0,1.25,-220.23926,-104.55566)"
     id="g9511">
    <path
       d="m 212.07031,97.996094 c 0,-4.183594 -3.39062,-7.574219 -7.57422,-7.574219 -4.18359,0 -7.57422,3.390625 -7.57422,7.574219 0,4.183596 3.39063,7.574216 7.57422,7.574216 4.1836,0 7.57422,-3.39062 7.57422,-7.574216"
       id="path8438"
       style="fill:#e66e33;fill-opacity:1;fill-rule:nonzero;stroke:none" />
    <path
       d="m 201.70703,93.609375 c 0,-4.183594 -3.39062,-7.574219 -7.57422,-7.574219 -4.18359,0 -7.57812,3.390625 -7.57812,7.574219 0,4.183594 3.39453,7.574215 7.57812,7.574215 4.1836,0 7.57422,-3.390621 7.57422,-7.574215"
       id="path8440"
       style="fill:#e66e33;fill-opacity:1;fill-rule:nonzero;stroke:none" />
    <path
       d="m 191.33984,91.21875 c 0,-4.183594 -3.39062,-7.574219 -7.57422,-7.574219 -4.18359,0 -7.57421,3.390625 -7.57421,7.574219 0,4.183594 3.39062,7.574219 7.57421,7.574219 4.1836,0 7.57422,-3.390625 7.57422,-7.574219"
       id="path8442"
       style="fill:#e66e33;fill-opacity:1;fill-rule:nonzero;stroke:none" />
    <path
       d="m 222.43359,100.78516 c 0,-4.183598 -3.39062,-7.574222 -7.57422,-7.574222 -4.18359,0 -7.57421,3.390624 -7.57421,7.574222 0,4.18359 3.39062,7.57422 7.57421,7.57422 4.1836,0 7.57422,-3.39063 7.57422,-7.57422"
       id="path8444"
       style="fill:#e66e33;fill-opacity:1;fill-rule:nonzero;stroke:none" />
    <path
       d="m 233.19922,104.77344 c 0,-4.1836 -3.39063,-7.574221 -7.57422,-7.574221 -4.18359,0 -7.57422,3.390621 -7.57422,7.574221 0,4.18359 3.39063,7.57422 7.57422,7.57422 4.18359,0 7.57422,-3.39063 7.57422,-7.57422"
       id="path8446"
       style="fill:#e66e33;fill-opacity:1;fill-rule:nonzero;stroke:none" />
    <path
       d="m 243.57031,127.55859 c 2.67969,-3.21093 2.25,-7.98828 -0.96094,-10.66796 -3.21484,-2.6836 -7.98828,-2.25 -10.67187,0.96093 -2.67969,3.21094 -2.24609,7.98828 0.96484,10.66797 3.21094,2.67969 7.98828,2.25 10.66797,-0.96094"
       id="path8448"
       style="fill:#e66e33;fill-opacity:1;fill-rule:nonzero;stroke:none" />
    <path
       d="m 243,139.92187 c 2.67969,-3.21093 2.25,-7.98828 -0.96094,-10.66796 -3.21484,-2.67969 -7.98828,-2.25 -10.67187,0.96093 -2.67969,3.21094 -2.2461,7.98828 0.96484,10.66797 3.21094,2.6836 7.98828,2.25 10.66797,-0.96094"
       id="path8450"
       style="fill:#e66e33;fill-opacity:1;fill-rule:nonzero;stroke:none" />
    <path
       d="m 243.16406,110.35156 c 0,-4.18359 -3.39062,-7.57422 -7.57422,-7.57422 -4.18359,0 -7.57422,3.39063 -7.57422,7.57422 0,4.1836 3.39063,7.57422 7.57422,7.57422 4.1836,0 7.57422,-3.39062 7.57422,-7.57422"
       id="path8452"
       style="fill:#e66e33;fill-opacity:1;fill-rule:nonzero;stroke:none" />
  </g>
</svg>
