<?xml version="1.0" encoding="UTF-8" standalone="no"?>
<!-- Created with Inkscape (http://www.inkscape.org/) -->

<svg
   xmlns:svg="http://www.w3.org/2000/svg"
   xmlns="http://www.w3.org/2000/svg"
   version="1.1"
   width="117.64881"
   height="99.54277"
   id="svg5004">
  <defs
     id="defs5006" />
  <g
     transform="matrix(1.25,0,0,1.25,-418.53515,-64.054039)"
     id="g9542">
    <path
       d="m 374.00391,58.371094 c -1.49219,-7.042969 -15.11329,-9.34375 -23.80469,-4.734375 -11.48047,6.082031 -13.75,16.898437 -11.04297,34.929687 1.01953,6.789063 6.05859,18.566404 5.16016,27.128904 -0.66797,6.3125 -2.73438,9.38672 -9.48829,11.84375 12.48829,7.77735 30.9961,3.08985 29.73047,-26.08203 -0.35156,-8.046874 -1.7539,-12.960936 0.26172,-24.132811 0.95703,-5.304688 4.33985,-7.46875 7.11719,-11.632813 1.9375,-2.90625 2.48437,-5.347656 2.06641,-7.320312"
       id="path621"
       style="fill:#ffc700;fill-opacity:1;fill-rule:nonzero;stroke:none" />
    <path
       d="m 384.33203,67.398438 c 0,5.105468 -4.33203,9.25 -9.67578,9.25 -5.33984,0 -9.67188,-4.144532 -9.67188,-9.25 0,-5.109376 4.33204,-9.25 9.67188,-9.25 5.34375,0 9.67578,4.140624 9.67578,9.25"
       id="path623"
       style="fill:#eb008a;fill-opacity:1;fill-rule:nonzero;stroke:none" />
    <path
       d="m 381.60937,81.6875 c 0.0664,1.84375 1.60938,3.132812 3.4336,2.867188 l 41.2539,-5.984376 c 1.82032,-0.261718 2.98047,-1.949218 2.56641,-3.746093 0,0 -4.48047,-19.617188 -25.02734,-18.894531 C 380.73828,56.738281 381.60937,81.6875 381.60937,81.6875"
       id="path639"
       style="fill:#ffc700;fill-opacity:1;fill-rule:nonzero;stroke:none" />
    <path
       d="m 400.26953,60.425781 c 0,0 -33.20312,-8.277343 -33.86328,21.34375 -0.42969,19.167969 2.82812,23.382809 7.3125,19.042969 8.82031,-8.539062 26.55078,-40.386719 26.55078,-40.386719"
       id="path641"
       style="fill:#ffc700;fill-opacity:1;fill-rule:nonzero;stroke:none" />
  </g>
</svg>
