<?xml version="1.0" encoding="UTF-8" standalone="no"?>
<!-- Created with Inkscape (http://www.inkscape.org/) -->

<svg
   xmlns:svg="http://www.w3.org/2000/svg"
   xmlns="http://www.w3.org/2000/svg"
   version="1.1"
   width="33.496101"
   height="36.123051"
   id="svg5004">
  <defs
     id="defs5006" />
  <g
     transform="matrix(1.25,0,0,1.25,-1132.3144,-601.60156)"
     id="g9654">
    <path
       d="m 920.55859,489.69922 -3.34765,0 0,15.26172 3.34765,0 0,-15.26172 z m 0,0"
       id="path8808"
       style="fill:#333333;fill-opacity:1;fill-rule:nonzero;stroke:none" />
    <path
       d="m 931.72266,508.46094 c 0,0.57422 -5.75,1.71875 -12.83985,1.71875 -7.08984,0 -12.83984,-1.14453 -12.83984,-1.71875 0,-2.4961 5.75,-4.51953 12.83984,-4.51953 7.08985,0 12.83985,2.02343 12.83985,4.51953"
       id="path8810"
       style="fill:#333333;fill-opacity:1;fill-rule:nonzero;stroke:none" />
    <path
       d="m 932.64844,481.28125 c 0,5.75391 -6,10.42187 -13.39844,10.42187 -7.40234,0 -13.39844,-4.66796 -13.39844,-10.42187"
       id="path8814"
       style="fill:#ffc700;fill-opacity:1;fill-rule:nonzero;stroke:none" />
  </g>
</svg>
