<?xml version="1.0" encoding="UTF-8" standalone="no"?>
<!-- Created with Inkscape (http://www.inkscape.org/) -->

<svg
   xmlns:svg="http://www.w3.org/2000/svg"
   xmlns="http://www.w3.org/2000/svg"
   version="1.1"
   width="119.375"
   height="90.341797"
   id="svg5004">
  <defs
     id="defs5006" />
  <g
     transform="matrix(1.25,0,0,1.25,-384.9707,-532.86132)"
     id="g9269">
    <path
       d="m 398.72656,440.28906 c 0,7.73047 -6.26953,14 -14,14 -7.73047,0 -14,-6.26953 -14,-14 0,-7.73047 6.26953,-14 14,-14 7.73047,0 14,6.26953 14,14"
       id="path747"
       style="fill:#f3f3f3;fill-opacity:1;fill-rule:nonzero;stroke:none" />
    <path
       d="m 344.47656,442.28906 c 0,7.73047 -6.26953,14 -14,14 -7.73047,0 -14,-6.26953 -14,-14 0,-7.73047 6.26953,-14 14,-14 7.73047,0 14,6.26953 14,14"
       id="path749"
       style="fill:#f3f3f3;fill-opacity:1;fill-rule:nonzero;stroke:none" />
    <path
       d="m 335.97656,458.28906 c 0,7.73047 -6.26953,14 -14,14 -7.73047,0 -14,-6.26953 -14,-14 0,-7.73047 6.26953,-14 14,-14 7.73047,0 14,6.26953 14,14"
       id="path751"
       style="fill:#f3f3f3;fill-opacity:1;fill-rule:nonzero;stroke:none" />
    <path
       d="m 403.47656,457.28906 c 0,7.73047 -6.26953,14 -14,14 -7.73047,0 -14,-6.26953 -14,-14 0,-7.73047 6.26953,-14 14,-14 7.73047,0 14,6.26953 14,14"
       id="path787"
       style="fill:#f3f3f3;fill-opacity:1;fill-rule:nonzero;stroke:none" />
    <path
       d="m 393.97656,475.28906 c 0,7.73047 -6.26953,14 -14,14 -7.73047,0 -14,-6.26953 -14,-14 0,-7.73047 6.26953,-14 14,-14 7.73047,0 14,6.26953 14,14"
       id="path789"
       style="fill:#f3f3f3;fill-opacity:1;fill-rule:nonzero;stroke:none" />
    <path
       d="m 370.35156,484.5625 c 0,7.73047 -6.26953,14 -14,14 -7.73047,0 -14,-6.26953 -14,-14 0,-7.73438 6.26953,-14 14,-14 7.73047,0 14,6.26562 14,14"
       id="path791"
       style="fill:#f3f3f3;fill-opacity:1;fill-rule:nonzero;stroke:none" />
    <path
       d="m 337.72656,481.55859 c 0,7.73047 -6.26953,14 -14,14 -7.73047,0 -14,-6.26953 -14,-14 0,-7.73047 6.26953,-14 14,-14 7.73047,0 14,6.26953 14,14"
       id="path793"
       style="fill:#f3f3f3;fill-opacity:1;fill-rule:nonzero;stroke:none" />
  </g>
</svg>
