<?xml version="1.0" encoding="UTF-8" standalone="no"?>
<!-- Created with Inkscape (http://www.inkscape.org/) -->

<svg
   xmlns:svg="http://www.w3.org/2000/svg"
   xmlns="http://www.w3.org/2000/svg"
   version="1.1"
   width="206.73308"
   height="30.025246"
   id="svg5004">
  <defs
     id="defs5006" />
  <path
     d="M 0.87875003,3.6817233 C 4.828946,3.7403173 8.725431,1.8213721 12.75375,1.6016458 20.449063,1.1817233 31.337734,-0.65909667 38.207852,3.8916846 45.956875,9.0235208 35.619962,13.266685 30.68832,12.851646 28.300625,12.65145 15.634609,14.043052 14.623868,11.518637 13.56918,8.8721533 22.138515,8.0860208 23.544765,7.9541846 c 3.34961,-0.3125 6.748048,-0.3173825 10.112305,-0.15625 6.279298,0.2978512 12.46582,1.4013675 18.706055,2.06543 3.339844,0.3564454 9.760743,0.9765624 11.899414,4.0429684 3.139649,4.506835 -8.28125,4.711914 -4.731445,9.990234 1.75293,2.612305 6.635743,2.729493 9.399414,2.709961 3.603516,-0.02441 6.958007,0.512695 10.53711,0.893555 11.723632,1.25 23.173832,-0.209961 34.824222,-1.47461 2.67089,-0.292968 6.18652,-0.03418 8.45214,-1.728515 5.3125,-3.989258 -5.50292,-4.59961 -8.17871,-4.40918 -5,0.356445 -12.26074,4.21875 -4.52148,7.03125 7.11914,2.583008 16.31348,2.675782 23.72071,1.513672 8.33983,-1.30371 16.87987,-0.981445 25.36132,-0.981445 15.71289,0 31.24024,-0.131837 46.72851,0"
     id="path8798"
     style="fill:none;stroke:#bfb399;stroke-width:1.75750005;stroke-linecap:butt;stroke-linejoin:miter;stroke-miterlimit:4;stroke-opacity:1" />
</svg>
