<?xml version="1.0" encoding="UTF-8" standalone="no"?>
<!-- Created with Inkscape (http://www.inkscape.org/) -->

<svg
   xmlns:svg="http://www.w3.org/2000/svg"
   xmlns="http://www.w3.org/2000/svg"
   version="1.1"
   width="16.844425"
   height="18.57025"
   id="svg5004">
  <defs
     id="defs5006" />
  <path
     d="m 12.145089,0.81304377 c -1.958,-1.040038 -4.2968747,-1.1914 -6.4745997,0.19043703 -1.645513,1.044913 -2.294925,3.320313 -1.831063,5.151363 0.117125,0.473637 0.3125,0.92285 0.590825,1.323237 0.09275,0.131838 0.322263,0.507813 0.49805,0.52735 0.2832,0.02925 0.23925,-0.29785 0.2832,-0.517575 0.166013,-0.78125 0.49805,-1.547862 1.069338,-2.114262 0.78125,-0.761725 2.075187,-1.132813 3.0664,-0.551763 0.9033247,0.52735 1.1572247,1.46485 0.6640617,2.37305 -0.9228497,1.694338 -2.8662117,1.538088 -4.4824247,1.68945 -1.791987,0.166025 -3.75,0.708013 -4.88768701,2.2119132 -0.947263,1.254888 -0.747075,2.99805 -0.03412,4.384775 1.74317501,3.374025 6.33790001,3.486325 10.06348671,2.661125 3.198238,-0.708 5.361325,-3.007812 6.015625,-5.981437 0.405263,-1.831063 -0.044,-4.1162132 -0.493175,-5.9472762 -0.556637,-2.260737 -1.967762,-4.30175 -4.04785,-5.40038703"
     id="path681"
     style="fill:#eb008a;fill-opacity:1;fill-rule:nonzero;stroke:none" />
</svg>
