<?xml version="1.0" encoding="UTF-8" standalone="no"?>
<!-- Created with Inkscape (http://www.inkscape.org/) -->

<svg
   xmlns:svg="http://www.w3.org/2000/svg"
   xmlns="http://www.w3.org/2000/svg"
   version="1.1"
   width="39.324577"
   height="123.13965"
   id="svg5004">
  <defs
     id="defs5006" />
  <g
     transform="matrix(1.25,0,0,1.25,-846.79359,-484.29687)"
     id="g9404">
    <path
       d="m 702.37109,395.39062 c 0,4.39063 -3.5625,7.95313 -7.95312,7.95313 -4.39453,0 -7.95313,-3.5625 -7.95313,-7.95313 0,-4.39453 3.5586,-7.95312 7.95313,-7.95312 4.39062,0 7.95312,3.55859 7.95312,7.95312"
       id="path595"
       style="fill:#000000;fill-opacity:1;fill-rule:nonzero;stroke:none" />
    <path
       d="m 708.89453,400.94531 -2.08984,3.77344 -10.28516,-5.6875 2.08984,-3.77734 10.28516,5.6914 z m 0,0"
       id="path597"
       style="fill:#000000;fill-opacity:1;fill-rule:nonzero;stroke:none" />
    <path
       d="m -9.9375e-4,0.001325 c 0,0 -2.00000025,-9.148437 -2.00000025,-14.582031 0,-5.433594 2.574219,-17.726563 1.714844,-25.160156 -0.855469,-7.433594 -13.757812,-18.734375 -15.238281,-24.953125 -2.367188,-9.9375 4.734375,-18.457032 4.734375,-18.457032"
       transform="matrix(1,0,0,-1,694.4424,401.7982)"
       id="path599"
       style="fill:none;stroke:#000000;stroke-width:2;stroke-linecap:butt;stroke-linejoin:miter;stroke-miterlimit:4;stroke-opacity:1" />
    <path
       d="m 690.99219,400.32422 c -0.004,0.0859 -0.0156,0.17187 -0.043,0.25781 -0.375,1.19141 -2.79297,0.85938 -3.47656,1.66016 -1.16016,1.35547 0.30468,3.625 -0.0195,5.35156 -0.61718,3.29297 -3.3125,1.69531 -4.07421,-0.5 -0.57422,-1.66016 -0.5625,-3.96094 0.0547,-5.61328 0.67578,-1.80469 3.25391,-2.92188 5.0625,-2.94531 0.83985,-0.0117 2.52344,0.76953 2.4961,1.78906"
       id="path645"
       style="fill:#000000;fill-opacity:1;fill-rule:nonzero;stroke:none" />
  </g>
</svg>
