<?xml version="1.0" encoding="UTF-8" standalone="no"?>
<!-- Created with Inkscape (http://www.inkscape.org/) -->

<svg
   xmlns:svg="http://www.w3.org/2000/svg"
   xmlns="http://www.w3.org/2000/svg"
   version="1.1"
   width="32.419231"
   height="27.545174"
   id="svg5004">
  <defs
     id="defs5006" />
  <path
     d="m 24.264933,9.9414 c 0,5.488287 -4.453125,9.941412 -9.941401,9.941412 -5.4931624,0 -9.9414124,-4.453125 -9.9414124,-9.941412 0,-5.4931625 4.44825,-9.9414 9.9414124,-9.9414 5.488276,0 9.941401,4.4482375 9.941401,9.9414"
     id="path595"
     style="fill:#000000;fill-opacity:1;fill-rule:nonzero;stroke:none" />
  <path
     d="m 32.419233,16.884763 -2.6123,4.716799 -12.85645,-7.109375 2.6123,-4.7216745 12.85645,7.1142505 z m 0,0"
     id="path597"
     style="fill:#000000;fill-opacity:1;fill-rule:nonzero;stroke:none" />
  <path
     d="m 10.041308,16.1084 c -0.005,0.107375 -0.0195,0.214838 -0.05375,0.322263 -0.46875,1.489262 -3.491213,1.074224 -4.3457,2.0752 -1.4502,1.694337 0.38085,4.53125 -0.02437,6.68945 -0.771475,4.116212 -4.1406255,2.119137 -5.09276298,-0.625 -0.717775,-2.0752 -0.703125,-4.951175 0.068375,-7.0166 C 1.437825,15.29785 4.660488,13.901363 6.921225,13.872075 c 1.049813,-0.01463 3.1543,0.961913 3.120125,2.236325"
     id="path645"
     style="fill:#000000;fill-opacity:1;fill-rule:nonzero;stroke:none" />
</svg>
