<?xml version="1.0" encoding="UTF-8" standalone="no"?>
<!-- Created with Inkscape (http://www.inkscape.org/) -->

<svg
   xmlns:svg="http://www.w3.org/2000/svg"
   xmlns="http://www.w3.org/2000/svg"
   version="1.1"
   width="60.141602"
   height="30.78125"
   id="svg5004">
  <defs
     id="defs5006" />
  <g
     transform="matrix(1.25,0,0,1.25,-497.77344,-466.18652)"
     id="g9065">
    <path
       d="m 402.46875,386.98828 43.02734,10.58594 0.83594,-3.60156 -42.92578,-10.78125 -0.9375,3.79687 z m 0,0"
       id="path8714"
       style="fill:#c29968;fill-opacity:1;fill-rule:nonzero;stroke:none" />
    <path
       d="m 402.20703,386.52734 1.16016,-3.6875 2.15625,-5.72265 -5.64844,-1.41016 c -0.0352,-0.043 -0.63672,6.07813 -0.63672,6.07813 0,0 -0.94922,6.26953 -1.01953,6.19921 l 3.98828,-1.45703 z m 0,0"
       id="path8790"
       style="fill:#cccccc;fill-opacity:1;fill-rule:nonzero;stroke:none" />
    <path
       d="m 398.25391,387.77344 c 0.12109,-1.16407 0.60937,-2.26172 1.80859,-2.48047 1.27344,-0.23438 1.37109,1.42578 1.30469,2.28125 -0.0508,0.65234 -0.14844,1.26953 -0.0274,1.92578 0.39844,2.17578 2.11328,3.72656 3.875,4.89062 0.35547,0.24219 1.31641,0.57813 1.22266,1.13282 -0.25781,1.55078 -4.46094,-1.03907 -5.00391,-1.42969 -1.40234,-0.99609 -2.61718,-2.44531 -3.03515,-4.14453 -0.14453,-0.58985 -0.22657,-1.39844 -0.14453,-2.17578"
       id="path8792"
       style="fill:#cccccc;fill-opacity:1;fill-rule:nonzero;stroke:none" />
    <path
       d="m 398.83203,387.30078 7.51563,0.99609 1.19531,-4.48828 -7.73828,-2.02734 -0.97266,5.51953 z m 0,0"
       id="path8794"
       style="fill:#cccccc;fill-opacity:1;fill-rule:nonzero;stroke:none" />
    <path
       d="m 405.58594,378.90234 -6.52344,-1.53125 0.96094,-4.42187 6.51953,1.53515 -0.95703,4.41797 z m 0,0"
       id="path8796"
       style="fill:#cccccc;fill-opacity:1;fill-rule:nonzero;stroke:none" />
  </g>
</svg>
