<?xml version="1.0" encoding="UTF-8" standalone="no"?>
<!-- Created with Inkscape (http://www.inkscape.org/) -->

<svg
   xmlns:svg="http://www.w3.org/2000/svg"
   xmlns="http://www.w3.org/2000/svg"
   version="1.1"
   width="32.576046"
   height="18.133183"
   id="svg5004">
  <defs
     id="defs5006" />
  <path
     d="m 30.657111,11.135241 c -0.371087,0.01463 -0.703125,0.1416 -0.986325,0.336912 -0.039,0.0195 -0.09763,0.04888 -0.166012,0.07813 -0.3711,0.166013 -1.020513,0.429688 -1.894538,0.727538 C 26.619024,5.8080909 23.328011,-0.31007152 15.715711,0.01219098 7.7860245,0.34910348 5.2518375,6.7065284 4.8856375,13.234853 c -0.502938,-0.126962 -0.9375,-0.249025 -1.284188,-0.351562 -0.346675,-0.107375 -0.61035,-0.195313 -0.771487,-0.258788 -0.02438,-0.01 -0.05375,-0.0195 -0.06838,-0.02437 -0.01462,-0.005 -0.0195,-0.01 -0.02925,-0.01 -0.6836,-0.385737 -1.567388,-0.288087 -2.16308801,0.2832 -0.7373,0.703125 -0.761712,1.870125 -0.05375,2.60255 0.57128801,0.502925 0.52246301,0.351563 0.68360001,0.463863 0.712888,0.302737 2.446288,0.864262 5.15625,1.3916 2.680663,0.5127 6.2109365,0.927737 10.1269495,0.7666 7.03125,-0.3125 12.7002,-2.37305 14.536137,-3.193363 0.180663,-0.07813 0.332025,-0.151362 0.478513,-0.229487 0.07325,-0.044 0.1416,-0.083 0.263675,-0.161138 0.05862,-0.044 0.12695,-0.09275 0.263662,-0.2246 0.07813,-0.166025 0.4834,-0.253912 0.551763,-1.396487 -0.044,-1.015625 -0.903325,-1.801763 -1.91895,-1.757813"
     id="path8470"
     style="fill:#ffc700;fill-opacity:1;fill-rule:nonzero;stroke:none" />
</svg>
