<?xml version="1.0" encoding="UTF-8" standalone="no"?>
<!-- Created with Inkscape (http://www.inkscape.org/) -->

<svg
   xmlns:svg="http://www.w3.org/2000/svg"
   xmlns="http://www.w3.org/2000/svg"
   version="1.1"
   width="127.68066"
   height="184.14481"
   id="svg5004">
  <defs
     id="defs5006" />
  <g
     transform="matrix(1.25,0,0,1.25,-1099.2627,-60.224687)"
     id="g9183">
    <path
       d="m 979.75,156.54687 -3.11328,-1.32031 1.80078,-4.25 3.11719,1.32031 -1.80469,4.25 z m 0,0"
       id="path437"
       style="fill:#232323;fill-opacity:1;fill-rule:nonzero;stroke:none" />
    <path
       d="m 916.40234,85.175781 c 0,10.21875 -8.28125,18.496099 -18.49609,18.496099 -10.21875,0 -18.49609,-8.277349 -18.49609,-18.496099 0,-10.214843 8.27734,-18.496093 18.49609,-18.496093 10.21484,0 18.49609,8.28125 18.49609,18.496093"
       id="path533"
       style="fill:#232323;fill-opacity:1;fill-rule:nonzero;stroke:none" />
    <path
       d="M -9.6875e-4,0.00185 C 3.01075,-6.974713 3.772469,-18.127056 3.803719,-23.138775 c 0.0625,-9.820313 -3.492188,-20.886719 -6.273438,-31.371094 -3.839844,-14.460937 -2.421875,-34.875 16.636719,-38.207031 9.367187,-1.636719 19.972656,1.433594 26.6875,8.058594 7.65625,7.550781 11.582031,14.902343 17.179687,23.753906 5.28125,8.339844 8.957032,13.828125 14.792969,16.304687 4.894531,2.078125 9.011719,-1.027343 6.703125,-6.253906"
       transform="matrix(1,0,0,-1,900.2705,101.3456)"
       id="path535"
       style="fill:none;stroke:#232323;stroke-width:2;stroke-linecap:butt;stroke-linejoin:miter;stroke-miterlimit:4;stroke-opacity:1" />
    <path
       d="m 902.40234,68.765625 c 0,0 -3.1914,-13.59375 13.88282,-17.351563 1.27343,-0.28125 4.26953,-1.296874 4.26953,-1.296874 0,0 -2.94532,-2.480469 -9.82813,-1.828126 -10.73437,1.015626 -20.76562,5.3125 -20.59375,20.476563 0.16797,15.167969 12.26953,0 12.26953,0"
       id="path547"
       style="fill:#232323;fill-opacity:1;fill-rule:nonzero;stroke:none" />
  </g>
</svg>
