<?xml version="1.0" encoding="UTF-8" standalone="no"?>
<!-- Created with Inkscape (http://www.inkscape.org/) -->

<svg
   xmlns:svg="http://www.w3.org/2000/svg"
   xmlns="http://www.w3.org/2000/svg"
   version="1.1"
   width="51.43066"
   height="69.365341"
   id="svg5004">
  <defs
     id="defs5006" />
  <path
     d="m 46.240234,46.245214 c 0,12.768562 -10.351562,23.120125 -23.120117,23.120125 C 10.346681,69.365339 0,59.013776 0,46.245214 0,33.476664 10.346681,23.125101 23.120117,23.125101 c 12.768555,0 23.120117,10.351563 23.120117,23.120113"
     id="path477"
     style="fill:#232323;fill-opacity:1;fill-rule:nonzero;stroke:none" />
  <path
     d="m 28.740234,25.732526 c 0,0 -3.989257,-16.9970753 17.353513,-21.6943378 1.5918,-0.3515625 5.336914,-1.6211 5.336914,-1.6211 0,0 -3.681638,-3.09569998 -12.285151,-2.28026248 C 25.72754,1.4063507 13.188478,6.7725632 13.403322,25.732526 c 0.209961,18.959963 15.336913,0 15.336913,0"
     id="path479"
     style="fill:#232323;fill-opacity:1;fill-rule:nonzero;stroke:none" />
</svg>
