<?xml version="1.0" encoding="UTF-8" standalone="no"?>
<!-- Created with Inkscape (http://www.inkscape.org/) -->

<svg
   xmlns:svg="http://www.w3.org/2000/svg"
   xmlns="http://www.w3.org/2000/svg"
   version="1.1"
   width="134.2359"
   height="151.75304"
   id="svg5004">
  <defs
     id="defs5006" />
  <g
     transform="matrix(1.25,0,0,1.25,-94.892578,-538.50087)"
     id="g9298">
    <path
       d="m 112.90625,467.79687 c 0,10.21485 -8.28125,18.4961 -18.496094,18.4961 -10.21875,0 -18.496094,-8.28125 -18.496094,-18.4961 0,-10.21484 8.277344,-18.49609 18.496094,-18.49609 10.214844,0 18.496094,8.28125 18.496094,18.49609"
       id="path477"
       style="fill:#232323;fill-opacity:1;fill-rule:nonzero;stroke:none" />
    <path
       d="m 98.90625,451.38672 c 0,0 -3.191406,-13.59766 13.88281,-17.35547 1.27344,-0.28125 4.26953,-1.29688 4.26953,-1.29688 0,0 -2.94531,-2.47656 -9.82812,-1.82421 -10.734376,1.01562 -20.765626,5.30859 -20.593751,20.47656 0.167969,15.16797 12.269531,0 12.269531,0"
       id="path479"
       style="fill:#232323;fill-opacity:1;fill-rule:nonzero;stroke:none" />
    <path
       d="m 0,4e-4 c 0,0 3.078125,-16.003906 0,-25.4375 -1.546875,-4.75 -8.019531,-24.824219 1.96875,-31.738281 8,-5.539063 22.304688,-9.027344 36.050781,-9.027344 12.75,0 26.941407,0.574219 38.484375,5.902344 6.671875,3.078125 9.617188,8.675781 9.414063,20.371093"
       transform="matrix(1,0,0,-1,96.375,485.0004)"
       id="path495"
       style="fill:none;stroke:#232323;stroke-width:2;stroke-linecap:round;stroke-linejoin:miter;stroke-miterlimit:4;stroke-opacity:1" />
  </g>
</svg>
