<?xml version="1.0" encoding="UTF-8" standalone="no"?>
<!-- Created with Inkscape (http://www.inkscape.org/) -->

<svg
   xmlns:svg="http://www.w3.org/2000/svg"
   xmlns="http://www.w3.org/2000/svg"
   version="1.1"
   width="114.23945"
   height="89.92881"
   id="svg5004">
  <defs
     id="defs5006" />
  <path
     d="m 92.903322,52.648305 c -2.480475,-1.542963 -4.750975,-5.18555 -5.04395,-8.0957 L 83.894535,4.8895175 C 83.60156,1.9842425 80.979497,-0.21302 78.06446,0.0164675 L 4.0312475,5.7635425 C 1.11621,5.99303 -0.607415,8.473505 0.1982475,11.286005 l 15.5273375,54.21875 c 0.805662,2.8125 3.657225,6.069337 6.337887,7.231437 L 59.55371,89.069205 c 2.68555,1.166987 7.06055,1.142575 9.726562,-0.05375 L 112.13672,69.79183 c 2.66601,-1.1963 2.81738,-3.4375 0.33691,-4.980475 L 92.903322,52.648268 z m 0,0"
     id="path8310"
     style="fill:#54b87d;fill-opacity:1;fill-rule:nonzero;stroke:none" />
  <path
     d="M 83.069335,46.969593 79.202147,5.2361925 6.848635,12.360218 22.639647,64.074092 83.069335,46.969592 z m 0,0"
     id="path8312"
     style="fill:#232323;fill-opacity:1;fill-rule:nonzero;stroke:none" />
  <path
     d="m 36.096685,68.126818 49.8584,-13.911125 4.306637,1.967775 -49.321287,14.370112 -4.84375,-2.426762 z m 0,0"
     id="path8314"
     style="fill:#232323;fill-opacity:1;fill-rule:nonzero;stroke:none" />
  <path
     d="m 47.42481,75.265493 46.914062,-16.376951 4.5459,2.353513 -45.297862,16.440437 -6.1621,-2.416999 z m 0,0"
     id="path8316"
     style="fill:#232323;fill-opacity:1;fill-rule:nonzero;stroke:none" />
  <path
     d="m 69.563472,76.300655 23.569338,-8.8916 5.175787,2.109375 -23.56445,8.73535 -5.180675,-1.953125 z m 0,0"
     id="path8318"
     style="fill:#232323;fill-opacity:1;fill-rule:nonzero;stroke:none" />
</svg>
