<?xml version="1.0" encoding="UTF-8" standalone="no"?>
<!-- Created with Inkscape (http://www.inkscape.org/) -->

<svg
   xmlns:svg="http://www.w3.org/2000/svg"
   xmlns="http://www.w3.org/2000/svg"
   version="1.1"
   width="114.23945"
   height="89.92881"
   id="svg5004">
  <defs
     id="defs5006" />
  <path
     d="m 92.903322,52.648305 c -2.480475,-1.542963 -4.750975,-5.18555 -5.04395,-8.0957 L 83.894535,4.8895175 C 83.60156,1.9842425 80.979497,-0.21302 78.06446,0.0164675 L 4.0312475,5.7635425 C 1.11621,5.99303 -0.607415,8.473505 0.1982475,11.286005 l 15.5273375,54.21875 c 0.805662,2.8125 3.657225,6.069337 6.337887,7.231437 L 59.55371,89.069205 c 2.68555,1.166987 7.06055,1.142575 9.726562,-0.05375 L 112.13672,69.79183 c 2.66601,-1.1963 2.81738,-3.4375 0.33691,-4.980475 L 92.903322,52.648268 z m 0,0"
     id="path8310"
     style="fill:#54b87d;fill-opacity:1;fill-rule:nonzero;stroke:none" />
  <path
     d="M 83.069335,46.969593 79.202147,5.2361925 6.848635,12.360218 22.639647,64.074092 83.069335,46.969592 z m 0,0"
     id="path8312"
     style="fill:#232323;fill-opacity:1;fill-rule:nonzero;stroke:none" />
  <path
     d="m 36.096685,68.126818 49.8584,-13.911125 4.306637,1.967775 -49.321287,14.370112 -4.84375,-2.426762 z m 0,0"
     id="path8314"
     style="fill:#232323;fill-opacity:1;fill-rule:nonzero;stroke:none" />
  <path
     d="m 47.42481,75.265493 46.914062,-16.376951 4.5459,2.353513 -45.297862,16.440437 -6.1621,-2.416999 z m 0,0"
     id="path8316"
     style="fill:#232323;fill-opacity:1;fill-rule:nonzero;stroke:none" />
  <path
     d="m 69.563472,76.300655 23.569338,-8.8916 5.175787,2.109375 -23.56445,8.73535 -5.180675,-1.953125 z m 0,0"
     id="path8318"
     style="fill:#232323;fill-opacity:1;fill-rule:nonzero;stroke:none" />
  <path
     d="m 29.91016,59.406118 -4.785163,-9.956051 c 0,0 6.88965,-3.25195 9.956063,-3.061525 3.061525,0.190426 2.675775,6.318363 0.38085,6.88965 -2.294913,0.576175 4.018562,3.066401 4.018562,3.066401 l -4.208987,1.3379 -4.213863,-3.6377 0.957025,4.213862 -2.104487,1.147463 z m 0,0"
     id="path8460"
     style="fill:#e66e33;fill-opacity:1;fill-rule:nonzero;stroke:none" />
  <path
     d="m 40.437497,46.769405 c 0,2.109375 1.342775,7.465812 2.680663,7.465812 1.342775,0 5.9375,0.7666 5.742187,-1.147462 -0.190425,-1.914063 -1.528312,-7.851563 -2.675775,-7.851563 -1.15235,0 -5.747075,1.533213 -5.747075,1.533213"
     id="path8462"
     style="fill:#4cc2e6;fill-opacity:1;fill-rule:nonzero;stroke:none" />
  <path
     d="m 58.054685,41.217643 c -0.576163,0.576174 -6.513663,2.2998 -6.513663,4.213862 0,1.914063 0.7666,7.084963 2.875975,6.88965 2.104488,-0.190425 6.88965,-1.337887 7.465813,-1.914062 0.571288,-0.571288 -1.723625,-2.871088 -1.723625,-2.871088 0,0 -4.594725,2.2998 -4.790038,1.342775 -0.190437,-0.961913 -0.761725,-2.68555 -0.761725,-2.68555 l 4.01855,-1.71875 -0.571287,-3.256837 z m 0,0"
     id="path8464"
     style="fill:#ffc700;fill-opacity:1;fill-rule:nonzero;stroke:none" />
  <path
     d="m 78.152347,36.622917 c 0,0 -6.12305,1.342775 -6.12305,1.914063 0,0.576175 0.273438,5.756837 1.616213,5.180663 1.342775,-0.571288 3.930662,-0.776363 3.930662,-0.776363 0,0 0.571288,0.898437 0.239263,1.127925 -0.908213,0.644537 -3.730475,0.7666 -3.876963,1.118163 -0.2246,0.527349 0.351563,2.17285 0.351563,2.17285 l 5.585937,-1.1621 -1.059562,-5.537113 c 0,0 -3.916013,1.323238 -4.301763,0.556638 -0.380862,-0.7666 -0.190425,-1.528325 -0.190425,-1.528325 l 4.01855,-1.152338 -0.190425,-1.914063 z m 0,0"
     id="path8468"
     style="fill:#e66e33;fill-opacity:1;fill-rule:nonzero;stroke:none" />
  <path
     d="m 23.47461,46.725455 -7.7832,-25.883788 4.965813,-0.952149 6.015625,9.414062 -1.0498,-10.361325 6.26465,-1.186525 6.567387,24.355463 -3.803712,0.81055 -4.90235,-21.928713 -1.1914,10.976563 -3.515625,1.1084 -5.771488,-9.228513 8.242188,20.4541 -4.038088,2.421875 z m 0,0"
     id="path8528"
     style="fill:#eb5e54;fill-opacity:1;fill-rule:nonzero;stroke:none" />
  <path
     d="m 64.353522,22.970568 c 0,0 2.827138,-0.292963 2.807613,-0.556638 -0.01,-0.273437 -3.79395,-15.1806625 -9.067388,-12.4462875 -5.273437,2.7294875 -1.142575,28.0908245 4.145513,27.4707005 5.2832,-0.615225 6.289062,-9.028313 6.289062,-9.028313 l -7.20215,0.4541 0.903325,2.036125 3.56445,-0.307612 c 0,0 -2.055662,4.599612 -3.76465,3.979487 -1.71875,-0.61035 -6.494137,-20.830075 -2.875975,-22.167962 3.613275,-1.337888 5.2002,10.5664 5.2002,10.5664"
     id="path8530"
     style="fill:#eb008a;fill-opacity:1;fill-rule:nonzero;stroke:none" />
  <path
     d="m 74.163085,32.931505 c -1.630863,0.195313 -1.71875,-2.221675 -2.348625,-7.421875 -0.63965,-5.195312 -1.25,-7.578125 0.458975,-7.832025 1.3379,-0.2002 2.3877,6.4502 2.568362,7.739262 0.180663,1.293938 0.81055,7.338863 -0.678712,7.514638 m 2.368162,-7.28515 C 76.27246,23.756705 74.08496,13.995967 72.117185,14.28893 c -2.490225,0.3711 -2.817375,3.173825 -1.88965,10.761725 0.927738,7.59765 2.236337,11.469725 4.555675,10.800775 2.578125,-0.7373 2.006825,-8.320313 1.748037,-10.205075"
     id="path8532"
     style="fill:#eb008a;fill-opacity:1;fill-rule:nonzero;stroke:none" />
  <path
     d="m 40.344722,27.667842 c 1.059575,-0.18555 1.4795,1.435538 1.4795,1.435538 0,0 -2.119137,0.615237 -2.407225,0.737312 0,0 -0.112375,-1.977537 0.927725,-2.17285 m 2.568363,5.058588 c 0,0 0.424812,4.770512 -1.318363,4.897463 -1.748037,0.131837 -2.03125,-6.269526 -2.03125,-6.269526 l 5.268563,-1.18165 c 0,0 -1.4795,-5.151362 -5.7959,-4.121087 -4.306638,1.03515 -0.249025,15.273437 3.666987,14.951175 3.930663,-0.3125 2.636725,-8.68165 2.636725,-8.68165 0,0 -2.00195,0.3418 -2.426762,0.405275"
     id="path8534"
     style="fill:#eb5e54;fill-opacity:1;fill-rule:nonzero;stroke:none" />
  <path
     d="m 49.651372,25.900255 c 1.0498,-0.190425 1.469726,1.43555 1.469726,1.43555 0,0 -2.109375,0.620125 -2.407226,0.732425 0,0 -0.112374,-1.977538 0.9375,-2.167975 m 4.995113,4.658213 c 0,0 -1.997075,0.332025 -2.436525,0.3955 0,0 0.43945,4.7754 -1.308588,4.907225 -1.74805,0.126962 -2.036137,-6.279288 -2.036137,-6.279288 l 5.263675,-1.18165 c 0,0 -1.4795,-5.15625 -5.786137,-4.1162 -4.311525,1.03515 -0.258788,15.26855 3.666999,14.951163 3.925775,-0.3125 2.636713,-8.67675 2.636713,-8.67675"
     id="path8536"
     style="fill:#eb5e54;fill-opacity:1;fill-rule:nonzero;stroke:none" />
  <path
     d="m 61.492059,40.140204 2.680662,8.999025 c 0,0 4.213863,-0.576175 3.828125,-1.342775 -0.38575,-0.7666 -1.147462,-3.828125 -1.147462,-3.828125 l 4.975588,2.680662 1.533199,-1.14745 -4.213862,-2.680675 0.7666,-5.170887 -2.8711,1.5332 -0.7666,3.637687 -1.914063,-3.447262 -2.871087,0.7666 z m 0,0"
     id="path8466"
     style="fill:#eb008a;fill-opacity:1;fill-rule:nonzero;stroke:none" />
</svg>
