<?xml version="1.0" encoding="UTF-8" standalone="no"?>
<!-- Created with Inkscape (http://www.inkscape.org/) -->

<svg
   xmlns:svg="http://www.w3.org/2000/svg"
   xmlns="http://www.w3.org/2000/svg"
   version="1.1"
   width="18.042"
   height="55.869541"
   id="svg5004">
  <defs
     id="defs5006" />
  <g
     transform="matrix(1.25,0,0,1.25,-503.65234,-569.34042)"
     id="g9242">
    <path
       d="m 411.52734,458.28125 c 0.0312,1.57422 -0.94531,2.875 -2.18359,2.89844 -1.23438,0.0273 -2.26172,-1.23047 -2.29688,-2.80469 -0.0351,-1.57422 0.94141,-2.875 2.17579,-2.90234 1.23828,-0.0234 2.26953,1.23046 2.30468,2.80859"
       id="path795"
       style="fill:#ffc700;fill-opacity:1;fill-rule:nonzero;stroke:none" />
    <path
       d="m 413.78125,463.83594 c 0.0625,3.07812 -1.32422,29.84765 -3.74219,29.89843 -2.42187,0.0508 -4.94922,-26.63281 -5.01172,-29.71093 -0.0664,-3.08203 1.875,-3.95313 4.29297,-4.00391 2.41797,-0.0547 4.39453,0.73828 4.46094,3.81641"
       id="path797"
       style="fill:#ffc700;fill-opacity:1;fill-rule:nonzero;stroke:none" />
    <path
       d="m 415.55469,497.25781 -10.88672,0.23047 -0.13672,-6.64453 10.88281,-0.23438 0.14063,6.64844 z m 0,0"
       id="path799"
       style="fill:#000000;fill-opacity:1;fill-rule:nonzero;stroke:none" />
    <path
       d="m 417.35547,499.86328 -14.375,0.30469 -0.0586,-2.84375 14.375,-0.30469 0.0586,2.84375 z m 0,0"
       id="path801"
       style="fill:#000000;fill-opacity:1;fill-rule:nonzero;stroke:none" />
    <path
       d="m 408.91797,457.51562 c -0.004,0.25782 -0.21485,0.46485 -0.47266,0.46094 -0.25781,-0.004 -0.46484,-0.21875 -0.46094,-0.47656 0.004,-0.25781 0.21485,-0.46484 0.47266,-0.46094 0.25781,0.004 0.46484,0.21875 0.46094,0.47656"
       id="path803"
       style="fill:#000000;fill-opacity:1;fill-rule:nonzero;stroke:none" />
    <path
       d="m 410.43359,457.17187 c -0.004,0.25782 -0.21484,0.46485 -0.47265,0.46094 -0.25782,-0.004 -0.46485,-0.21875 -0.46094,-0.47656 0.004,-0.25781 0.21875,-0.46484 0.47656,-0.46094 0.25781,0.004 0.46094,0.21875 0.45703,0.47656"
       id="path805"
       style="fill:#000000;fill-opacity:1;fill-rule:nonzero;stroke:none" />
  </g>
</svg>
