<?xml version="1.0" encoding="UTF-8" standalone="no"?>
<!-- Created with Inkscape (http://www.inkscape.org/) -->

<svg
   xmlns:svg="http://www.w3.org/2000/svg"
   xmlns="http://www.w3.org/2000/svg"
   version="1.1"
   width="54.008823"
   height="12.197263"
   id="svg5004">
  <defs
     id="defs5006" />
  <g
     transform="matrix(1.25,0,0,1.25,-1208.2373,-285.67383)"
     id="g9149">
    <path
       d="m 1009.7969,230.39844 c 0,1.02343 -0.8321,1.85547 -1.8594,1.85547 l -39.49219,0 c -1.02734,0 -1.85547,-0.83204 -1.85547,-1.85547 0,-1.02735 0.82813,-1.85938 1.85547,-1.85938 l 39.49219,0 c 1.0273,0 1.8594,0.83203 1.8594,1.85938"
       id="path8432"
       style="fill:#eb008a;fill-opacity:1;fill-rule:nonzero;stroke:none" />
    <path
       d="m 978.43359,235.27734 c 0,1.66797 -1.35156,3.01953 -3.01953,3.01953 -1.66797,0 -3.01953,-1.35156 -3.01953,-3.01953 0,-1.66797 1.35156,-3.02343 3.01953,-3.02343 1.66797,0 3.01953,1.35546 3.01953,3.02343"
       id="path8434"
       style="fill:#000000;fill-opacity:1;fill-rule:nonzero;stroke:none" />
    <path
       d="m 1002.5937,235.27734 c 0,1.66797 -1.3515,3.01953 -3.01948,3.01953 -1.66797,0 -3.01953,-1.35156 -3.01953,-3.01953 0,-1.66797 1.35156,-3.02343 3.01953,-3.02343 1.66798,0 3.01948,1.35546 3.01948,3.02343"
       id="path8436"
       style="fill:#000000;fill-opacity:1;fill-rule:nonzero;stroke:none" />
  </g>
</svg>
