<?xml version="1.0" encoding="UTF-8" standalone="no"?>
<!-- Created with Inkscape (http://www.inkscape.org/) -->

<svg
   xmlns:svg="http://www.w3.org/2000/svg"
   xmlns="http://www.w3.org/2000/svg"
   version="1.1"
   width="80.625"
   height="21.538074"
   id="svg5004">
  <defs
     id="defs5006" />
  <g
     transform="matrix(1.25,0,0,1.25,-217.58301,-646.84082)"
     id="g9347">
    <path
       d="m 238.56641,532.47266 -64.5,0 0,-15 64.5,0 0,15 z m 0,0"
       id="path481"
       style="fill:#232323;fill-opacity:1;fill-rule:nonzero;stroke:none" />
    <path
       d="m 2.5e-5,-6.1875e-4 c 0,-0.98046925 -0.796875,-1.77343725 -1.773437,-1.77343725 -0.984375,0 -1.777344,0.792968 -1.777344,1.77343725 0,0.98046875 0.792969,1.77734375 1.777344,1.77734375 0.976562,0 1.773437,-0.796875 1.773437,-1.77734375 z m 0,0"
       transform="matrix(1,0,0,-1,218.1406,524.7611)"
       id="path485"
       style="fill:none;stroke:#ffffff;stroke-width:1;stroke-linecap:butt;stroke-linejoin:miter;stroke-miterlimit:4;stroke-opacity:1" />
    <path
       d="m -9.9375e-4,-6.1875e-4 c 0,-0.98046925 -0.79296925,-1.77343725 -1.77343725,-1.77343725 -0.980469,0 -1.777344,0.792968 -1.777344,1.77343725 0,0.98046875 0.796875,1.77734375 1.777344,1.77734375 0.980468,0 1.77343725,-0.796875 1.77343725,-1.77734375 z m 0,0"
       transform="matrix(1,0,0,-1,224.8174,524.7611)"
       id="path487"
       style="fill:none;stroke:#ffffff;stroke-width:1;stroke-linecap:butt;stroke-linejoin:miter;stroke-miterlimit:4;stroke-opacity:1" />
    <path
       d="m -9.375e-4,-6.1875e-4 c 0,-2.43750025 -1.9726565,-4.41015625 -4.4101565,-4.41015625 -2.4375,0 -4.410156,1.972656 -4.410156,4.41015625 0,2.43749975 1.972656,4.41015575 4.410156,4.41015575 2.4375,0 4.4101565,-1.972656 4.4101565,-4.41015575 z m 0,0"
       transform="matrix(1,0,0,-1,210.7275,524.7611)"
       id="path483"
       style="fill:none;stroke:#ffffff;stroke-width:1;stroke-linecap:butt;stroke-linejoin:miter;stroke-miterlimit:4;stroke-opacity:1" />
    <path
       d="m -1.875e-5,-6.1875e-4 c 0,-0.98046925 -0.79687525,-1.77343725 -1.77343725,-1.77343725 -0.984375,0 -1.777344,0.792968 -1.777344,1.77343725 0,0.98046875 0.792969,1.77734375 1.777344,1.77734375 0.976562,0 1.77343725,-0.796875 1.77343725,-1.77734375 z m 0,0"
       transform="matrix(1,0,0,-1,190.9883,524.7611)"
       id="path489"
       style="fill:none;stroke:#ffffff;stroke-width:1;stroke-linecap:butt;stroke-linejoin:miter;stroke-miterlimit:4;stroke-opacity:1" />
    <path
       d="m -9.375e-4,-6.1875e-4 c 0,-0.98046925 -0.7929685,-1.77343725 -1.7734375,-1.77343725 -0.980469,0 -1.777344,0.792968 -1.777344,1.77343725 0,0.98046875 0.796875,1.77734375 1.777344,1.77734375 0.980469,0 1.7734375,-0.796875 1.7734375,-1.77734375 z m 0,0"
       transform="matrix(1,0,0,-1,197.665,524.7611)"
       id="path493"
       style="fill:none;stroke:#ffffff;stroke-width:1;stroke-linecap:butt;stroke-linejoin:miter;stroke-miterlimit:4;stroke-opacity:1" />
    <path
       d="m 237.55078,534.70312 -1.84375,0 0,-3.77343 1.84375,0 0,3.77343 z m 0,0"
       id="path497"
       style="fill:#232323;fill-opacity:1;fill-rule:nonzero;stroke:none" />
    <path
       d="m 177.55078,534.70312 -1.83984,0 0,-3.77343 1.83984,0 0,3.77343 z m 0,0"
       id="path499"
       style="fill:#232323;fill-opacity:1;fill-rule:nonzero;stroke:none" />
  </g>
</svg>
