<?xml version="1.0" encoding="UTF-8" standalone="no"?>
<!-- Created with Inkscape (http://www.inkscape.org/) -->

<svg
   xmlns:svg="http://www.w3.org/2000/svg"
   xmlns="http://www.w3.org/2000/svg"
   version="1.1"
   width="47.651375"
   height="13.881331"
   id="svg5004">
  <defs
     id="defs5006" />
  <path
     d="m 36.269537,0.283145 c -3.59375,0.224613 -8.847662,1.40625 -9.863287,1.7627 C 25.46875,2.368107 24.267575,2.543882 23.852537,2.54877 23.461912,2.55377 22.236325,2.40717 21.29395,2.10932 20.268562,1.78217 14.98535,0.73237 11.3916,0.600533 8.3837873,0.488158 0,0.605533 0,0.605533 l 0.5126998,2.587899 c 0,0 1.030275,0.532225 1.2402375,0.9375 0.20995,0.405263 2.2167875,7.387688 3.925775,8.481438 1.8066375,1.15235 4.3359377,1.298825 6.7919877,1.26465 2.451175,-0.02925 6.210937,-0.205075 7.96875,-4.121088 1.362312,-3.037112 1.914062,-4.863287 2.3877,-5.004887 0.273437,-0.083 0.590825,-0.11225 0.898437,-0.1025 l 0.332038,-0.005 c 0.2832,0.005 0.61035,0.005 0.883787,0.07813 0.473625,0.131837 1.074213,1.943362 2.509763,4.946287 1.86035,3.867188 5.620112,3.950201 8.071287,3.916026 2.45605,-0.02925 4.98535,-0.239263 6.757813,-1.440438 1.679687,-1.132812 3.510737,-8.164063 3.70605,-8.574213 C 46.191412,3.1543 47.207037,2.59765 47.207037,2.59765 L 47.651375,0 c 0,0 -8.3838,0.09275 -11.381838,0.2832"
     id="path601"
     style="fill:#000000;fill-opacity:1;fill-rule:nonzero;stroke:none" />
</svg>
