<?xml version="1.0" encoding="UTF-8" standalone="no"?>
<!-- Created with Inkscape (http://www.inkscape.org/) -->

<svg
   xmlns:svg="http://www.w3.org/2000/svg"
   xmlns="http://www.w3.org/2000/svg"
   version="1.1"
   width="195.69826"
   height="36.450188"
   id="svg5004">
  <defs
     id="defs5006" />
  <g
     transform="matrix(1.25,0,0,1.25,-320.58105,-409.28711)"
     id="g9044">
    <path
       d="m 411.69922,356.58984 -155.23438,-11.82031 1.32032,-17.33984 155.23828,11.82422 -1.32422,17.33593 z m 0,0"
       id="path8754"
       style="fill:#ffc700;fill-opacity:1;fill-rule:nonzero;stroke:none" />
    <path
       d="m 313.98828,331.70703 33.59375,2.54688 -0.78906,9.40625 -33.60156,-2.57032 0.79687,-9.38281 z m 0,0"
       id="path8782"
       style="fill:#4cc2e6;fill-opacity:1;fill-rule:nonzero;stroke:none" />
    <path
       d="m 333.36328,336.92969 c -0.10156,1.61718 -1.49219,2.84375 -3.10937,2.73828 l -11.57422,-0.72656 c -1.61328,-0.10547 -2.84375,-1.4961 -2.73828,-3.10938 0.10156,-1.61719 1.49218,-2.84375 3.10546,-2.74219 l 11.57422,0.73047 c 1.61719,0.10156 2.84375,1.49219 2.74219,3.10938"
       id="path8784"
       style="fill:#009145;fill-opacity:1;fill-rule:nonzero;stroke:none" />
  </g>
</svg>
