<?xml version="1.0" encoding="UTF-8" standalone="no"?>
<!-- Created with Inkscape (http://www.inkscape.org/) -->

<svg
   xmlns:svg="http://www.w3.org/2000/svg"
   xmlns="http://www.w3.org/2000/svg"
   version="1.1"
   width="64.301949"
   height="20.806055"
   id="svg4201">
  <defs
     id="defs4203">
    <mask
       id="mask20">
      <g
         id="g233"
         style="filter:url(#alpha)">
        <rect
           width="1190.55"
           height="841.89001"
           x="0"
           y="0"
           id="rect235"
           style="fill:#ffffff;fill-opacity:0.60000598;stroke:none" />
      </g>
    </mask>
    <filter
       filterUnits="objectBoundingBox"
       x="0"
       y="0"
       width="1"
       height="1"
       color-interpolation-filters="sRGB"
       id="alpha">
      <feColorMatrix
         id="feColorMatrix10"
         values="0 0 0 0 1 0 0 0 0 1 0 0 0 0 1 0 0 0 1 0"
         in="SourceGraphic"
         type="matrix" />
    </filter>
    <clipPath
       id="clip22">
      <rect
         width="45"
         height="75"
         x="0"
         y="0"
         id="rect238" />
    </clipPath>
  </defs>
  <g
     transform="translate(-282.40798,-464.07706)"
     id="layer1">
    <g
       transform="matrix(1.25,0,0,1.25,-955.1065,-447.47165)"
       id="g3788">
      <path
         d="m 990.84375,732.51172 c -0.82813,1.78515 0.54687,3.85937 3.05859,4.61719 l 21.25386,6.40234 c 2.5079,0.75391 6.7071,1.28516 9.3243,1.17187 l 13.7773,-0.58593 c 2.6172,-0.10938 3.1094,-1.07813 1.086,-2.15235 -2.0235,-1.07031 -5.8204,-1.94922 -8.4415,-1.94531 l -5.4375,0 c -2.6211,0 -6.7695,-0.76172 -9.2226,-1.69141 l -19.43361,-7.36718 c -2.44922,-0.92969 -5.13281,-0.23438 -5.96484,1.55078"
         id="path640"
         style="fill:#000000;fill-opacity:1;fill-rule:nonzero;stroke:none" />
      <path
         d="m 1030.6484,740.08594 c 0.2539,-0.0937 2.7813,-0.0937 3.2696,-0.14063 0.3437,-0.0351 1.4687,-0.0937 2.5195,-0.21094 0.668,-0.0742 1.3242,-0.16406 1.9922,-0.22656 0.4453,-0.0391 0.9219,-0.0937 1.3711,-0.0469 0.5586,0.0508 1.6601,0.38672 1.6523,1.10156 -0.016,0.5625 -0.6367,0.94922 -1.0937,1.14844 -0.5508,0.24609 -1.1641,0.35547 -1.75,0.49609 -0.7305,0.18359 -1.461,0.39063 -2.1914,0.57422"
         id="path644"
         style="fill:#000000;fill-opacity:1;fill-rule:nonzero;stroke:none" />
      <path
         d="m 990.17578,733.99219 c -0.6875,2.52734 0.84766,5.03515 3.41406,5.5664 l 21.22266,4.39844 c 2.5664,0.53125 6.8008,1.19141 9.4063,1.46094 l 4.1562,0.43359 c 2.6094,0.27344 4.6719,-1.22265 4.5859,-3.32031 -0.082,-2.10156 -2.2929,-3.85156 -4.914,-3.89453 l -1.7969,-0.0273 c -2.6172,-0.043 -6.7813,-0.80078 -9.25,-1.68359 l -20.67578,-7.41406 c -2.46875,-0.88672 -5.05078,0.46094 -5.74219,2.98828 l -0.40625,1.49219 z m 0,0"
         id="path646"
         style="fill:#54b87d;fill-opacity:1;fill-rule:nonzero;stroke:none" />
    </g>
  </g>
</svg>
