<?xml version="1.0" encoding="UTF-8" standalone="no"?>
<!-- Created with Inkscape (http://www.inkscape.org/) -->

<svg
   xmlns:svg="http://www.w3.org/2000/svg"
   xmlns="http://www.w3.org/2000/svg"
   version="1.1"
   width="7.3854961"
   height="5.9938707"
   id="svg4201">
  <defs
     id="defs4203" />
  <g
     transform="translate(-324.87868,-495.07953)"
     id="layer1">
    <g
       transform="matrix(1.25,0,0,1.25,-573.36403,256.30954)"
       id="g4211">
      <path
         d="m 722.43359,194.22266 c -0.20703,-0.0156 -3.17968,-0.15235 -3.45312,0.63671 -0.4336,1.25782 3.20312,1 4.04297,0.72657"
         id="path673"
         style="fill:#000000;fill-opacity:1;fill-rule:nonzero;stroke:none" />
      <path
         d="m 721.80078,194.625 c -0.19922,-0.0352 -3.125,-0.59766 -3.20312,-1.42969 -0.12891,-1.32422 3.34765,-0.21875 4.10156,0.2461"
         id="path675"
         style="fill:#000000;fill-opacity:1;fill-rule:nonzero;stroke:none" />
      <path
         d="m 723.11328,194.60547 c 0.12109,-0.16797 1.8125,-2.61719 1.28906,-3.26563 -0.83593,-1.03515 -2.54297,2.1836 -2.75781,3.04297"
         id="path677"
         style="fill:#000000;fill-opacity:1;fill-rule:nonzero;stroke:none" />
      <path
         d="m 722.49609,193.5625 c -0.1914,-0.0742 -2.9414,-1.29297 -2.82812,-2.07813 0.1875,-1.3164 3.3164,0.4961 3.95312,1.11329"
         id="path679"
         style="fill:#000000;fill-opacity:1;fill-rule:nonzero;stroke:none" />
    </g>
  </g>
</svg>
