<?xml version="1.0" encoding="UTF-8" standalone="no"?>
<!-- Created with Inkscape (http://www.inkscape.org/) -->

<svg
   xmlns:svg="http://www.w3.org/2000/svg"
   xmlns="http://www.w3.org/2000/svg"
   version="1.1"
   width="31.233713"
   height="25.848207"
   id="svg4201">
  <defs
     id="defs4203">
    <mask
       id="mask20">
      <g
         id="g233"
         style="filter:url(#alpha)">
        <rect
           width="1190.55"
           height="841.89001"
           x="0"
           y="0"
           id="rect235"
           style="fill:#ffffff;fill-opacity:0.60000598;stroke:none" />
      </g>
    </mask>
    <filter
       filterUnits="objectBoundingBox"
       x="0"
       y="0"
       width="1"
       height="1"
       color-interpolation-filters="sRGB"
       id="alpha">
      <feColorMatrix
         id="feColorMatrix10"
         values="0 0 0 0 1 0 0 0 0 1 0 0 0 0 1 0 0 0 1 0"
         in="SourceGraphic"
         type="matrix" />
    </filter>
    <clipPath
       id="clip22">
      <rect
         width="45"
         height="75"
         x="0"
         y="0"
         id="rect238" />
    </clipPath>
  </defs>
  <g
     transform="translate(-298.22198,-459.99229)"
     id="layer1">
    <g
       transform="matrix(1.25,0,0,1.25,-557.64879,-97.391924)"
       id="g3748">
      <path
         d="m 692.66797,455.15234 c 0.66015,-0.375 1.17187,-1.01953 1.10547,-1.79687 -0.0586,-0.69141 -0.47657,-1.29688 -0.66016,-1.95313 -0.21875,-0.79297 -0.26953,-1.61718 -0.35937,-2.43359 -0.0703,-0.68359 -0.27735,-2.83984 -1.26172,-2.78906 -0.60938,0.0312 -0.80078,0.67968 -0.92578,1.17187 -0.0899,0.36328 -0.008,0.51953 -0.42579,0.41016 -0.28125,-0.0742 -0.54296,-0.41797 -0.73437,-0.61719 -0.37109,-0.39453 -0.61719,-0.60937 -1.125,-0.85156 -0.75781,-0.36328 -1.69922,-0.58594 -2.47266,-0.12891 -2.12109,1.2461 -0.74218,5.1836 0.3086,6.40625 1.23437,1.42969 3.69922,3.30469 5.72656,2.89453 0.27734,-0.0547 0.56641,-0.16406 0.82422,-0.3125"
         id="path840"
         style="fill:#000000;fill-opacity:1;fill-rule:nonzero;stroke:none" />
      <path
         d="m 707.56641,466.58594 -16.29297,-11.19532 2.12109,-3.08593 16.28906,11.19531 -2.11718,3.08594 z m 0,0"
         id="path842"
         style="fill:#eb008a;fill-opacity:1;fill-rule:nonzero;stroke:none" />
    </g>
  </g>
</svg>
