<?xml version="1.0" encoding="UTF-8" standalone="no"?>
<!-- Created with Inkscape (http://www.inkscape.org/) -->

<svg
   xmlns:svg="http://www.w3.org/2000/svg"
   xmlns="http://www.w3.org/2000/svg"
   version="1.1"
   width="60.124119"
   height="47.154137"
   id="svg5004">
  <defs
     id="defs5006" />
  <g
     transform="translate(-341.76521,-441.59105)"
     id="layer1">
    <rect
       width="0"
       height="0"
       x="180"
       y="418.07648"
       id="rect5039"
       style="fill:#0000ff;fill-rule:evenodd;stroke:#000000;stroke-width:1px;stroke-linecap:butt;stroke-linejoin:miter;stroke-opacity:1" />
    <path
       d="m 374.29497,473.56007 0.32712,12.79297 c 0.0288,1.20606 1.04,2.2461 2.246,2.31933 l 1.05475,0.0635 c 1.20113,0.0732 2.2315,-0.29297 2.28513,-0.81543 0.0538,-0.51758 -0.65425,-1.23535 -1.56738,-1.59668 -0.91312,-0.36133 -1.6455,-1.64062 -1.626,-2.84668 l 0.15625,-9.53125"
       id="path723"
       style="fill:#000000;fill-opacity:1;fill-rule:nonzero;stroke:none" />
    <path
       d="m 380.44721,471.20168 0.32713,12.78808 c 0.03,1.20605 1.04013,2.23633 2.24125,2.29004 l 1.38675,0.0684 c 1.20112,0.0538 2.2265,-0.33203 2.27538,-0.8545 0.0487,-0.52733 -0.73238,-1.23046 -1.72851,-1.57226 -1.001,-0.33691 -1.80662,-1.60156 -1.78712,-2.80274 l 0.15625,-9.53612"
       id="path725"
       style="fill:#000000;fill-opacity:1;fill-rule:nonzero;stroke:none" />
    <path
       d="m 364.12884,463.438 6.96788,-15.02441 c 0.70312,-1.52344 2.51949,-3.35938 4.03312,-4.07715 l 4.57038,-2.17773 c 1.51362,-0.71777 4.00875,-0.76172 5.54687,-0.0927 l 4.64838,2.02637 c 1.53812,0.66895 3.1055,2.37792 3.47662,3.79395 0.376,1.4209 2.03613,2.81737 3.6865,3.11522 l 3.39838,0.60059 c 1.65537,0.29297 1.91412,1.36231 0.57625,2.37794 l -3.01763,2.29003 c -1.33787,1.01563 -2.98825,3.10059 -3.667,4.63379 l -4.19925,9.45801 c -0.6835,1.5332 -2.51463,3.29101 -4.07713,3.90625 l -5.65912,2.22168 c -1.55763,0.61524 -4.12113,0.63476 -5.6885,0.039 l -6.04975,-2.28516 c -1.56737,-0.5957 -3.48637,-2.29492 -4.26275,-3.78418 l -1.98725,-3.78906"
       id="path727"
       style="fill:#4cc2e6;fill-opacity:1;fill-rule:nonzero;stroke:none" />
    <path
       d="m 385.79396,453.83351 c -0.45412,0.8252 -1.49412,1.11817 -2.31937,0.66406 -0.82025,-0.46386 -1.11813,-1.49902 -0.65912,-2.32422 0.45887,-0.82031 1.499,-1.11328 2.32412,-0.65917 0.82038,0.45898 1.11338,1.49413 0.65438,2.31933"
       id="path729"
       style="fill:#000000;fill-opacity:1;fill-rule:nonzero;stroke:none" />
    <path
       d="m 391.51659,452.36866 c -0.45412,0.83009 -1.49413,1.11818 -2.3145,0.66407 -0.82512,-0.45898 -1.123,-1.49902 -0.66887,-2.31933 0.46387,-0.8252 1.499,-1.12305 2.32425,-0.66406 0.82025,0.45897 1.11812,1.49901 0.65912,2.31932"
       id="path731"
       style="fill:#000000;fill-opacity:1;fill-rule:nonzero;stroke:none" />
    <path
       d="m 368.15234,467.10987 c -1.57225,-0.61522 -3.623,-2.35351 -5.586,-3.99902 -2.207,-1.8457 -3.91113,-3.51074 -6.13763,-5.32714 -1.05475,-0.85937 -4.07225,-4.25293 -5.43462,-4.30665 -1.48438,-0.0586 -4.77538,2.61232 -5.83975,3.46192 -3.90138,3.10058 -5.10263,4.10645 0.015,6.50391 7.90037,3.70605 15.20987,7.15332 25.00975,11.37695"
       id="path743"
       style="fill:#4cc2e6;fill-opacity:1;fill-rule:nonzero;stroke:none" />
  </g>
</svg>
