<?xml version="1.0" encoding="UTF-8" standalone="no"?>
<!-- Created with Inkscape (http://www.inkscape.org/) -->

<svg
   xmlns:svg="http://www.w3.org/2000/svg"
   xmlns="http://www.w3.org/2000/svg"
   version="1.1"
   width="93.658897"
   height="83.477097"
   id="svg5004">
  <defs
     id="defs5006" />
  <g
     transform="translate(-319.93576,-422.36378)"
     id="layer1">
    <rect
       width="0"
       height="0"
       x="180"
       y="418.07648"
       id="rect5039"
       style="fill:#0000ff;fill-rule:evenodd;stroke:#000000;stroke-width:1px;stroke-linecap:butt;stroke-linejoin:miter;stroke-opacity:1" />
    <g
       transform="matrix(1.25,0,0,1.25,-412.97719,-343.45164)"
       id="g6220">
      <path
         d="m 646.97266,657.71875 c -0.89063,-2.57422 -1.78125,-5.14453 -2.67579,-7.71875 -0.85546,-2.48828 -1.5039,-4.84375 -2.30078,-7.39063 -0.49218,-1.58203 -1.47265,-4.60156 -3.34375,-3.84765 -2.0664,0.83594 -0.71875,3.29687 -0.14453,4.85156 1.79297,4.84766 3.1875,9.82422 4.67578,14.77734"
         id="path1147"
         style="fill:#000000;fill-opacity:1;fill-rule:nonzero;stroke:none" />
      <path
         d="m 622.21875,658.09766 c 1.17578,-2.45704 2.35156,-4.91016 3.52344,-7.36719 1.14062,-2.375 2.33593,-4.50391 3.5625,-6.875 0.75781,-1.46875 2.1875,-4.3125 0.32422,-5.08594 -2.05469,-0.85937 -2.82422,1.83594 -3.51172,3.34766 -2.13672,4.70703 -4.64063,9.22656 -7.06641,13.78906"
         id="path1149"
         style="fill:#000000;fill-opacity:1;fill-rule:nonzero;stroke:none" />
      <path
         d="m 646.19922,627.25 c 0,-8.0625 -6.53516,-14.59766 -14.59766,-14.59766 -8.0625,0 -14.59765,6.53516 -14.59765,14.59766 0,8.05859 6.53515,14.59375 14.59765,14.59375 8.0625,0 14.59766,-6.53516 14.59766,-14.59375"
         id="path1151"
         style="fill:#eb008a;fill-opacity:1;fill-rule:nonzero;stroke:none" />
      <path
         d="m 637.64062,659.37109 c -0.75781,-2.61328 -1.51562,-5.23047 -2.27343,-7.84375 -0.73828,-2.52734 -1.57032,-4.82422 -2.39453,-7.36328 -0.50782,-1.57031 -1.45313,-4.60937 0.51171,-5.07031 2.16797,-0.51172 2.48829,2.27344 2.91797,3.875 1.33985,4.99219 3.07422,9.86328 4.71875,14.76172"
         id="path1153"
         style="fill:#000000;fill-opacity:1;fill-rule:nonzero;stroke:none" />
      <path
         d="m 612.90625,655.93359 c 1.29687,-2.39062 2.59766,-4.78125 3.89453,-7.17578 1.25391,-2.3164 2.27734,-4.53515 3.48047,-6.91797 0.73828,-1.47656 2.20312,-4.30078 3.92578,-3.25 1.90234,1.16016 0.17188,3.36719 -0.65234,4.8086 -2.55469,4.49218 -4.7461,9.17578 -7.01953,13.8164"
         id="path1155"
         style="fill:#000000;fill-opacity:1;fill-rule:nonzero;stroke:none" />
      <path
         d="m 606.72656,654.13281 c -1.59765,0.0859 -2.91015,1.46485 -2.92187,3.06641 l -0.0547,9.92187 c -0.008,1.60157 1.28906,3 2.88281,3.10938 l 25.53125,1.74219 c 1.59766,0.10937 3.91797,1.03125 5.15235,2.04687 l 5.94921,4.87891 c 1.23438,1.01562 2.10547,0.54297 1.92579,-1.04688 l -0.16016,-1.44922 c -0.17578,-1.58984 0.98437,-2.9414 2.58594,-3.00781 l 0.88281,-0.0352 c 1.59766,-0.0625 4.14844,0.29688 5.66406,0.80469 l 5.73047,1.91016 c 1.51953,0.5039 1.8125,0.0156 0.65625,-1.08985 l -1.68359,-1.60546 c -1.16016,-1.10547 -1.90235,-3.30079 -1.65235,-4.88282 l 1.11328,-7.07031 c 0.2461,-1.58203 -0.78515,-3.30469 -2.29687,-3.83203 l -12.46094,-4.34766 c -1.51172,-0.52343 -4.05469,-0.88672 -5.65234,-0.80078 l -31.19141,1.6875 z m 0,0"
         id="path1313"
         style="fill:#54b87d;fill-opacity:1;fill-rule:nonzero;stroke:none" />
      <path
         d="m 644.51953,667.16406 c -0.64453,1.17188 -2.10937,1.60547 -3.27734,0.96485 -1.17188,-0.63672 -1.60547,-2.10157 -0.96875,-3.27735 0.63672,-1.16797 2.10547,-1.60156 3.27734,-0.96484 1.17188,0.63672 1.60547,2.10547 0.96875,3.27734"
         id="path1315"
         style="fill:#000000;fill-opacity:1;fill-rule:nonzero;stroke:none" />
      <path
         d="m 652.28516,669.24219 c -0.64063,1.17578 -2.10547,1.60547 -3.27735,0.96875 -1.17187,-0.64063 -1.60547,-2.10547 -0.96484,-3.28125 0.63672,-1.16797 2.10156,-1.60157 3.27344,-0.96094 1.17578,0.63281 1.60546,2.10156 0.96875,3.27344"
         id="path1317"
         style="fill:#000000;fill-opacity:1;fill-rule:nonzero;stroke:none" />
      <path
         d="M 9.875e-4,-0.00158125 C -4.1787,-4.0133 -13.202138,-1.118769 -16.4287,2.889044 c -4.78125,5.941406 1.746094,14.488281 5.253906,19.355468 2.660156,3.695313 3.769531,9.730469 -1.195312,11.851563 -7.417969,3.175781 -15.707032,-6.144531 -9.324219,-12.402344"
         transform="matrix(1,0,0,-1,612.3037,659.0492)"
         id="path1319"
         style="fill:none;stroke:#54b87d;stroke-width:4;stroke-linecap:round;stroke-linejoin:miter;stroke-miterlimit:4;stroke-opacity:1" />
    </g>
  </g>
</svg>
