<?xml version="1.0" encoding="UTF-8" standalone="no"?>
<!-- Created with Inkscape (http://www.inkscape.org/) -->

<svg
   xmlns:svg="http://www.w3.org/2000/svg"
   xmlns="http://www.w3.org/2000/svg"
   version="1.1"
   width="78.872208"
   height="58.077957"
   id="svg5004">
  <defs
     id="defs5006" />
  <g
     transform="matrix(1.25,0,0,1.25,-968.58904,-517.92393)"
     id="g9013">
    <path
       d="m 815.57812,443.01562 c 0.0547,2.34766 0.11719,4.69922 0.17969,7.05079 0.0508,2.27734 -0.0312,4.38281 -0.043,6.6875 -0.008,1.42578 0.008,4.17578 1.75,4.04296 1.91407,-0.14843 1.44922,-2.52734 1.38282,-3.95703 -0.20313,-4.46093 -0.0508,-8.92187 0.0234,-13.38672"
       id="path8818"
       style="fill:#000000;fill-opacity:1;fill-rule:nonzero;stroke:none" />
    <path
       d="m 824.85156,442.53516 c -0.0586,2.34765 -0.12109,4.69921 -0.17969,7.05078 -0.0586,2.27734 0.0273,4.38281 0.0391,6.6875 0.008,1.42578 -0.008,4.17578 -1.7461,4.04297 -1.92187,-0.14844 -1.45312,-2.52735 -1.38672,-3.95704 0.20313,-4.46093 0.0508,-8.92187 -0.0234,-13.38671"
       id="path8820"
       style="fill:#000000;fill-opacity:1;fill-rule:nonzero;stroke:none" />
    <path
       d="m 797.00781,442.28125 c 0.0586,2.34766 0.11719,4.69922 0.17969,7.05078 0.0547,2.27344 -0.0312,4.38281 -0.043,6.6875 -0.008,1.42578 0.008,4.17578 1.75,4.03906 1.91797,-0.14453 1.44922,-2.52343 1.38281,-3.95312 -0.20312,-4.46094 -0.0469,-8.92188 0.0234,-13.38672"
       id="path8822"
       style="fill:#000000;fill-opacity:1;fill-rule:nonzero;stroke:none" />
    <path
       d="m 806.45703,442.23437 c -0.0586,2.35157 -0.12109,4.69922 -0.18359,7.05079 -0.0547,2.27734 0.0312,4.38281 0.043,6.6914 0.008,1.42578 -0.008,4.17188 -1.7461,4.03906 -1.92187,-0.14843 -1.45312,-2.52343 -1.38672,-3.95312 0.20313,-4.46094 0.0508,-8.92578 -0.0234,-13.39063"
       id="path8824"
       style="fill:#000000;fill-opacity:1;fill-rule:nonzero;stroke:none" />
    <path
       d="m 795.91406,453.19922 c -1.35547,0.2539 -2.90625,-0.57813 -3.4414,-1.85156 l -2.16016,-5.11329 c -0.53906,-1.26953 0.0469,-2.79296 1.29687,-3.3789 l 18.90625,-8.84375 c 1.25391,-0.58203 2.3711,-2.1875 2.48047,-3.56641 l 0.61719,-7.52734 c 0.11719,-1.37891 0.90625,-1.61719 1.75781,-0.53125 l 2.73828,3.48828 c 0.85157,1.08984 2.6211,1.61719 3.92969,1.17187 l 2.23438,-0.7539 c 1.3125,-0.44531 2.53906,-1.92578 2.73437,-3.29688 l 0.59766,-4.28125 c 0.19531,-1.36718 0.96094,-1.53515 1.70312,-0.37109 l 2.45313,3.84375 c 0.74219,1.16406 1.7539,3.17187 2.25,4.46484 l 3.77344,9.83203 c 0.49609,1.28907 -0.0469,2.95704 -1.20704,3.71094 l -9.5664,6.19922 c -1.16016,0.75391 -3.22266,1.57422 -4.57813,1.82813 l -26.51953,4.97656 z m 0,0"
       id="path8826"
       style="fill:#54b87d;fill-opacity:1;fill-rule:nonzero;stroke:none" />
    <path
       d="m 826.89453,435.67187 c 0.25781,1.125 -0.44531,2.24219 -1.56641,2.4961 -1.125,0.25781 -2.24609,-0.44141 -2.5039,-1.57031 -0.25781,-1.1211 0.44922,-2.24219 1.57031,-2.4961 1.12109,-0.25781 2.23828,0.44531 2.5,1.57031"
       id="path8828"
       style="fill:#000000;fill-opacity:1;fill-rule:nonzero;stroke:none" />
    <path
       d="m 833.11328,432.57031 c 0.25781,1.12891 -0.44531,2.2461 -1.57031,2.50391 -1.125,0.2539 -2.24219,-0.44531 -2.5,-1.57031 -0.25781,-1.125 0.44531,-2.24219 1.5664,-2.4961 1.125,-0.26172 2.24219,0.44141 2.50391,1.5625"
       id="path8830"
       style="fill:#000000;fill-opacity:1;fill-rule:nonzero;stroke:none" />
    <path
       d="M -0.00191875,-0.001575 C -3.814419,-0.501575 -7.931606,-2.614856 -11.830044,-1.6422 c -6.414062,1.6015625 -7.597656,8.820312 -3.097656,12.914062 3.175781,2.890625 8.371094,4.273438 8.289063,9.511719 -0.183594,12.164063 -18.492188,8.9375 -15.160157,-2.171875"
       transform="matrix(1,0,0,-1,798.8027,444.6078)"
       id="path8832"
       style="fill:none;stroke:#54b87d;stroke-width:3.45499992;stroke-linecap:round;stroke-linejoin:miter;stroke-miterlimit:4;stroke-opacity:1" />
  </g>
</svg>
