<?xml version="1.0" encoding="UTF-8" standalone="no"?>
<!-- Created with Inkscape (http://www.inkscape.org/) -->

<svg
   xmlns:svg="http://www.w3.org/2000/svg"
   xmlns="http://www.w3.org/2000/svg"
   version="1.1"
   width="84.40229"
   height="76.741875"
   id="svg5004">
  <defs
     id="defs5006" />
  <g
     transform="translate(-286.37029,-439.70553)"
     id="layer1">
    <g
       transform="matrix(1.25,0,0,1.25,205.39985,239.23803)"
       id="g4201">
      <path
         d="m 102.86328,205.08594 0.36328,14.05078 c 0.0312,1.32422 1.14063,2.47265 2.46485,2.55078 l 1.15625,0.0703 c 1.32422,0.0781 2.45312,-0.32422 2.51172,-0.89453 0.0547,-0.57031 -0.71875,-1.35937 -1.72266,-1.75781 -1.00391,-0.39453 -1.80859,-1.80078 -1.78516,-3.125 l 0.17188,-10.47656"
         id="path687"
         style="fill:#000000;fill-opacity:1;fill-rule:nonzero;stroke:none" />
      <path
         d="m 109.62109,202.49219 0.35938,14.05468 c 0.0312,1.32032 1.14453,2.45313 2.46484,2.51563 l 1.51953,0.0703 c 1.32422,0.0586 2.44922,-0.36328 2.50391,-0.9414 0.0547,-0.57422 -0.80078,-1.35157 -1.90234,-1.72266 -1.10157,-0.37109 -1.98438,-1.75781 -1.96094,-3.08203 l 0.17187,-10.47266"
         id="path689"
         style="fill:#000000;fill-opacity:1;fill-rule:nonzero;stroke:none" />
      <path
         d="m 80.113281,203.91797 0.359375,14.05469 c 0.03516,1.32031 1.144532,2.46875 2.464844,2.54687 l 1.160156,0.0703 c 1.324219,0.0781 2.453125,-0.32422 2.507813,-0.89453 0.05859,-0.57031 -0.714844,-1.35937 -1.71875,-1.7539 -1.003907,-0.39844 -1.808594,-1.80469 -1.785157,-3.12891 l 0.167969,-10.47266"
         id="path691"
         style="fill:#000000;fill-opacity:1;fill-rule:nonzero;stroke:none" />
      <path
         d="m 86.871094,201.32422 0.359375,14.05469 c 0.03125,1.32421 1.144531,2.45703 2.464843,2.51562 l 1.519532,0.0703 c 1.324218,0.0586 2.449218,-0.36328 2.503906,-0.9375 0.05469,-0.57812 -0.804688,-1.35156 -1.902344,-1.72265 -1.101562,-0.375 -1.984375,-1.76172 -1.960937,-3.08203 l 0.171875,-10.47657"
         id="path693"
         style="fill:#000000;fill-opacity:1;fill-rule:nonzero;stroke:none" />
      <path
         d="M 80.59375,208.02734 C 78.992188,207.94141 77.480469,206.57812 77.222656,205 l -1.023437,-6.34375 c -0.253907,-1.57813 0.824219,-3.12891 2.390625,-3.44141 l 23.687496,-4.7539 c 1.57032,-0.31641 3.33985,-1.78907 3.9336,-3.27344 l 3.375,-8.42188 c 0.59765,-1.48437 1.73047,-1.5625 2.51953,-0.17187 l 2.82422,4.98047 c 0.79297,1.39453 2.74219,2.41406 4.33594,2.26562 1.58984,-0.14453 3.30468,-1.50781 3.80468,-3.02734 l 1.32422,-4.02734 c 0.5,-1.51954 1.51172,-1.60157 2.25,-0.17969 l 2.37109,4.55859 c 0.73829,1.41797 1.50782,3.87891 1.71094,5.46485 l 1.54688,12.09375 c 0.20312,1.58984 -0.86719,3.3164 -2.37891,3.84375 l -12.46094,4.34765 c -1.51171,0.52735 -4.05468,0.88672 -5.65234,0.80078 l -31.1875,-1.6875 z m 0,0"
         id="path697"
         style="fill:#eb008a;fill-opacity:1;fill-rule:nonzero;stroke:none" />
      <path
         d="m 120.24609,196.82031 c -0.0234,1.33594 -1.12109,2.39844 -2.45312,2.37891 -1.33594,-0.0234 -2.39844,-1.11719 -2.37891,-2.45313 0.0156,-1.33203 1.11719,-2.39843 2.45313,-2.3789 1.33203,0.0195 2.39453,1.11718 2.3789,2.45312"
         id="path699"
         style="fill:#000000;fill-opacity:1;fill-rule:nonzero;stroke:none" />
      <path
         d="m 128.08984,195.04297 c -0.0195,1.33594 -1.11718,2.40234 -2.45312,2.38281 -1.33594,-0.0234 -2.39844,-1.11719 -2.37891,-2.45312 0.0195,-1.33594 1.11719,-2.39844 2.44922,-2.37891 1.33594,0.0156 2.39844,1.11719 2.38281,2.44922"
         id="path701"
         style="fill:#000000;fill-opacity:1;fill-rule:nonzero;stroke:none" />
      <path
         d="M -0.0014875,0.00185 C -4.427269,0.482319 -9.638206,-0.759869 -13.755394,1.400287 c -6.777343,3.5625 -6.539062,12.753907 1.132813,16 4.074219,1.726563 9.65625,2.179688 10.867187,7.796875 3.265625,15.167969 -18.347656,15.132813 -17.648437,1.71875"
         transform="matrix(1,0,0,-1,86.1968,199.1581)"
         id="path703"
         style="fill:none;stroke:#eb008a;stroke-width:4;stroke-linecap:round;stroke-linejoin:miter;stroke-miterlimit:4;stroke-opacity:1" />
    </g>
    <rect
       width="0"
       height="0"
       x="180"
       y="418.07648"
       id="rect5039"
       style="fill:#0000ff;fill-rule:evenodd;stroke:#000000;stroke-width:1px;stroke-linecap:butt;stroke-linejoin:miter;stroke-opacity:1" />
  </g>
</svg>
