<?xml version="1.0" encoding="UTF-8" standalone="no"?>
<!-- Created with Inkscape (http://www.inkscape.org/) -->

<svg
   xmlns:svg="http://www.w3.org/2000/svg"
   xmlns="http://www.w3.org/2000/svg"
   version="1.1"
   width="75.867088"
   height="90.12825"
   id="svg5004">
  <defs
     id="defs5006" />
  <g
     transform="translate(-269.86532,-442.81185)"
     id="layer1">
    <rect
       width="0"
       height="0"
       x="180"
       y="418.07648"
       id="rect5039"
       style="fill:#0000ff;fill-rule:evenodd;stroke:#000000;stroke-width:1px;stroke-linecap:butt;stroke-linejoin:miter;stroke-opacity:1" />
    <g
       transform="matrix(1.25,0,0,1.25,13.250289,254.52851)"
       id="g5976">
      <path
         d="m 255.46094,209.28125 c 1.21484,-0.25391 3.35937,-0.35547 4.42578,-1.04688 1.51562,-0.98046 2.01562,-6.21875 -0.7461,-5.42187 -0.95312,0.27734 -0.8164,0.84766 -1.19531,1.55469 -0.38281,0.71484 -1.78906,0.80859 -2.6289,1.03125 -2.12891,0.55859 -4.26563,1.07812 -6.4336,1.46875 -1.28906,0.23047 -5.16797,0.625 -4.72265,2.99609 0.40234,2.14844 4.47656,1.12891 5.74218,0.80469 2.04688,-0.51563 3.51563,-0.95313 5.5586,-1.38672"
         id="path409"
         style="fill:#000000;fill-opacity:1;fill-rule:nonzero;stroke:none" />
      <path
         d="m 235.69141,217.90234 c -1.84766,0.41797 -4.89454,0.54688 -6.76954,0.27735 l -12.97265,-1.84766 c -1.875,-0.26562 -3.04297,-1.99219 -2.59766,-3.83594 l 11.16016,-46.0625 c 0.44922,-1.83984 0.61328,-4.88281 0.37109,-6.76172 l -0.0352,-0.26953 c -0.24219,-1.8789 0.53906,-4.57031 1.74218,-5.97656 1.20313,-1.41016 2.94532,-1.21094 3.8711,0.44141 l 1.94531,3.45703 c 0.92578,1.65234 3.23047,2.88281 5.11719,2.73047 l 2.4375,-0.19532 c 1.88672,-0.15234 3.44922,-1.82421 3.47265,-3.71875 l 0.0312,-2.71875 c 0.0195,-1.89453 1.41797,-3.12109 3.10938,-2.71875 1.6875,0.39844 3.55078,2.19922 4.13672,4 l 0.58984,1.80469 c 0.58594,1.80469 2.25391,4.27344 3.70313,5.4961 l 9.07421,7.63671 c 1.44922,1.21875 2.2461,3.71875 1.76954,5.55469 l -0.31641,1.21875 c -0.47656,1.83594 -2.21875,4.08985 -3.87109,5.01563 l -8.625,4.8164 c -1.65235,0.92188 -2.97657,3.23047 -2.94532,5.1211 l 0.35157,19.71875 c 0.0352,1.89453 -1.44922,3.78906 -3.29688,4.20703 l -11.45312,2.60937 z m 0,0"
         id="path707"
         style="fill:#4cc2e6;fill-opacity:1;fill-rule:nonzero;stroke:none" />
      <path
         d="m 215.26172,215.43359 c 0.14453,-0.54297 -0.16016,-1.60937 -0.67578,-2.36718 l -4.51172,-6.61719 c -0.51563,-0.75781 -1.6875,-1.32813 -2.60547,-1.26172 l -0.46484,0.0352 c -0.91407,0.0625 -1.6836,0.85546 -1.71094,1.75781 -0.0273,0.90234 0.53906,2.10937 1.25781,2.68359 l 7.14453,5.71485 c 0.71875,0.57421 1.42188,0.60156 1.56641,0.0547"
         id="path709"
         style="fill:#4cc2e6;fill-opacity:1;fill-rule:nonzero;stroke:none" />
      <path
         d="m 244.02734,167.08203 c -0.0234,1.33594 -1.11718,2.39844 -2.44922,2.37891 -1.33593,-0.0195 -2.40234,-1.11328 -2.38281,-2.44922 0.0195,-1.33203 1.11719,-2.40235 2.45313,-2.38281 1.33203,0.0195 2.39843,1.11718 2.3789,2.45312"
         id="path711"
         style="fill:#000000;fill-opacity:1;fill-rule:nonzero;stroke:none" />
      <path
         d="m 251.87109,165.30469 c -0.0195,1.33593 -1.11718,2.40234 -2.45312,2.38281 -1.33203,-0.0195 -2.39844,-1.11719 -2.37891,-2.45313 0.0195,-1.33203 1.11719,-2.39843 2.44922,-2.375 1.33594,0.0156 2.40234,1.11329 2.38281,2.44532"
         id="path713"
         style="fill:#000000;fill-opacity:1;fill-rule:nonzero;stroke:none" />
      <path
         d="m 239.89062,216.59375 c 0.11719,1.23437 -0.0195,3.37891 0.54688,4.51562 0.80859,1.61719 5.95312,2.69922 5.47266,-0.13671 -0.16797,-0.97657 -0.75391,-0.90235 -1.41407,-1.35938 -0.66797,-0.46094 -0.60156,-1.87109 -0.72656,-2.72656 -0.32031,-2.17969 -0.59766,-4.35938 -0.74219,-6.5586 -0.0859,-1.30859 -0.043,-5.20703 -2.45312,-5.03125 -2.17969,0.16016 -1.6211,4.32422 -1.44141,5.61719 0.28906,2.09375 0.5586,3.60547 0.75781,5.67969"
         id="path715"
         style="fill:#000000;fill-opacity:1;fill-rule:nonzero;stroke:none" />
      <path
         d="m 229.62109,214.57031 c 1.23047,-0.16406 3.37891,-0.10156 4.49219,-0.71094 1.58594,-0.86328 2.48438,-6.04296 -0.33203,-5.46093 -0.96875,0.20312 -0.87891,0.78515 -1.30859,1.46093 -0.4375,0.6836 -1.84766,0.67188 -2.69922,0.82813 -2.16407,0.39453 -4.33594,0.75 -6.52735,0.97266 -1.30468,0.13281 -5.20312,0.23046 -4.9375,2.63281 0.23438,2.17187 4.375,1.46094 5.66407,1.23828 2.08203,-0.36328 3.57812,-0.6875 5.64843,-0.96094"
         id="path717"
         style="fill:#000000;fill-opacity:1;fill-rule:nonzero;stroke:none" />
      <path
         d="m 245.57031,215.24219 c 0.10938,1.14453 0.004,3.86328 0.88672,4.73437 1.05078,1.03906 5.61328,1.6211 5.52344,-0.57422 -0.0352,-0.86718 -0.84375,-1.11718 -1.46094,-1.33984 -0.94531,-0.33984 -0.78516,-1.43359 -0.92187,-2.36328 -0.32813,-2.22656 -0.61329,-4.46485 -0.76172,-6.71094 -0.0898,-1.3125 0.0664,-5.1875 -2.34375,-5.01172 -2.17969,0.16016 -1.73047,4.30078 -1.55078,5.59766 0.28515,2.08984 0.42968,3.59375 0.6289,5.66797"
         id="path719"
         style="fill:#000000;fill-opacity:1;fill-rule:nonzero;stroke:none" />
    </g>
  </g>
</svg>
