<?xml version="1.0" encoding="UTF-8" standalone="no"?>
<!-- Created with Inkscape (http://www.inkscape.org/) -->

<svg
   xmlns:svg="http://www.w3.org/2000/svg"
   xmlns="http://www.w3.org/2000/svg"
   version="1.1"
   width="113.3091"
   height="91.793533"
   id="svg5004">
  <defs
     id="defs5006" />
  <g
     transform="translate(-361.82069,-411.37685)"
     id="layer1">
    <rect
       width="0"
       height="0"
       x="180"
       y="418.07648"
       id="rect5039"
       style="fill:#0000ff;fill-rule:evenodd;stroke:#000000;stroke-width:1px;stroke-linecap:butt;stroke-linejoin:miter;stroke-opacity:1" />
    <g
       transform="matrix(1.25,0,0,1.25,-758.93444,-351.21736)"
       id="g6476">
      <path
         d="m 943.40625,678.38281 c -1.60156,0.0977 -4.21484,0.17969 -5.81641,0.1836 l -9.25,0.0156 c -1.60156,0.004 -2.42187,-1.20703 -1.82422,-2.69141 l 19.48047,-48.375 c 0.59766,-1.48437 1.2461,-4 1.44141,-5.58593 l 1.13281,-9.13672 c 0.19531,-1.58594 1.07422,-1.78906 1.94922,-0.44922 l 2.90625,4.45312 c 0.875,1.33985 2.89844,2.39063 4.49609,2.33204 l 8.5,-0.30469 c 1.59766,-0.0547 3.61719,-1.20313 4.48047,-2.55078 l 3.40625,-5.29297 c 0.86719,-1.34375 1.8711,-1.17188 2.23438,0.38672 l 1.08984,4.67578 c 0.36328,1.55859 1.25391,3.99609 1.98438,5.42187 l 7.34765,14.36719 c 0.72657,1.42578 0.0234,2.75781 -1.5664,2.96094 l -4.80469,0.61328 c -1.58594,0.20312 -3.60938,1.45703 -4.49609,2.79297 l -22.0586,33.21484 c -0.88281,1.33594 -2.91406,2.50391 -4.51562,2.60156 l -6.11719,0.36719 z m 0,0"
         id="path1241"
         style="fill:#4fc2e6;fill-opacity:1;fill-rule:nonzero;stroke:none" />
      <path
         d="m 968.17969,629.94922 c -0.0234,1.33594 -1.11719,2.39844 -2.44922,2.38281 -1.33594,-0.0234 -2.40235,-1.11719 -2.38281,-2.45312 0.0195,-1.33204 1.11718,-2.39844 2.45312,-2.37891 1.33203,0.0195 2.39844,1.11719 2.37891,2.44922"
         id="path1243"
         style="fill:#000000;fill-opacity:1;fill-rule:nonzero;stroke:none" />
      <path
         d="m 976.02344,628.17578 c -0.0195,1.33594 -1.11719,2.40234 -2.45313,2.37891 -1.33203,-0.0195 -2.39844,-1.11719 -2.3789,-2.44922 0.0195,-1.33594 1.11718,-2.39844 2.44921,-2.37891 1.33594,0.0156 2.40235,1.11328 2.38282,2.44922"
         id="path1245"
         style="fill:#000000;fill-opacity:1;fill-rule:nonzero;stroke:none" />
      <path
         d="m 927.53906,678.57031 c 1.15235,0.35938 1.96875,-0.64453 1.8125,-2.23828 l -4.18359,-42.5 c -0.15625,-1.58984 -1.35547,-3.65234 -2.65625,-4.57422 l -14.1875,-10.05078 c -1.30469,-0.92578 -3.00781,-0.53906 -3.78125,0.85938 l -7.20313,12.98046 c -0.77734,1.39844 -0.96875,3.77344 -0.42968,5.27735 l 2.96093,8.26562 c 0.53907,1.50391 1.83594,3.72657 2.87891,4.94141 l 20.79687,24.18359 c 1.03907,1.21094 2.83985,2.4961 3.99219,2.85547"
         id="path1247"
         style="fill:#4fc2e6;fill-opacity:1;fill-rule:nonzero;stroke:none" />
      <path
         d="m 954.68359,678.85547 c -0.23437,-5.07813 -0.0469,-12.35547 -0.0469,-12.35547 0.0391,-1.58203 -0.76563,-2.84766 -1.79688,-2.8125 -1.02734,0.0391 -1.85156,1.37109 -1.83203,2.95703 0,0 0.0274,1.82422 0.0977,4.5 0.0625,2.58984 -0.0352,4.98438 -0.0508,7.60938 -0.008,1.625 0.0156,4.7539 2.02343,4.60156 2.22266,-0.16797 1.6836,-2.8711 1.60547,-4.5"
         id="path1299"
         style="fill:#000000;fill-opacity:1;fill-rule:nonzero;stroke:none" />
      <path
         d="m 959.69922,670.70312 c 0.0625,-2.54296 0.14844,-4.53125 0.14844,-4.53125 0.0625,-1.47656 -0.6875,-2.67187 -1.67188,-2.65625 -0.98047,0.0234 -1.75,1.2461 -1.71484,2.72657 0,0 0.17578,6.96093 -0.043,11.78125 -0.0703,1.54687 -0.56641,4.11718 1.46875,4.27734 1.84375,0.14453 1.86328,-2.82812 1.85547,-4.37109 -0.0156,-2.49219 -0.10157,-4.76953 -0.043,-7.22657"
         id="path1301"
         style="fill:#000000;fill-opacity:1;fill-rule:nonzero;stroke:none" />
      <path
         d="m 939.45703,670.83984 c -2.90234,-1.45312 -10.44922,4.38672 -10.44922,4.38672 -1.26562,0.97656 -1.90625,2.57813 -1.42969,3.55469 0.48438,0.98047 1.8711,0.92969 3.08594,-0.11328 0,0 6.28125,-5.37891 6.42969,-2.66016 0.0234,0.45703 0.0703,2.9336 0.0859,3.20703 0.0898,1.64844 -0.31641,4.44532 1.6914,4.28907 2.22657,-0.16797 1.90625,-2.69141 1.90625,-4.35157 0,-2.60937 0.89453,-7.20703 -1.32031,-8.3125"
         id="path1305"
         style="fill:#000000;fill-opacity:1;fill-rule:nonzero;stroke:none" />
    </g>
  </g>
</svg>
