<?xml version="1.0" encoding="UTF-8" standalone="no"?>
<!-- Created with Inkscape (http://www.inkscape.org/) -->

<svg
   xmlns:svg="http://www.w3.org/2000/svg"
   xmlns="http://www.w3.org/2000/svg"
   version="1.1"
   width="161.37605"
   height="65.529884"
   id="svg5004">
  <defs
     id="defs5006" />
  <g
     transform="translate(-277.04667,-438.88658)"
     id="layer1">
    <rect
       width="0"
       height="0"
       x="180"
       y="418.07648"
       id="rect5039"
       style="fill:#0000ff;fill-rule:evenodd;stroke:#000000;stroke-width:1px;stroke-linecap:butt;stroke-linejoin:miter;stroke-opacity:1" />
    <g
       transform="matrix(1.25,0,0,1.25,-991.5771,-348.03154)"
       id="g6399">
      <path
         d="m 1107.1016,661.36719 c 0.066,2.71875 0.1406,5.4414 0.2109,8.16406 0.062,2.63281 -0.035,5.07031 -0.051,7.74219 -0.01,1.65234 0.012,4.83203 2.0235,4.67968 2.2226,-0.17187 1.6796,-2.92578 1.6093,-4.58203 -0.2382,-5.16406 -0.062,-10.32812 0.023,-15.49609"
         id="path1209"
         style="fill:#000000;fill-opacity:1;fill-rule:nonzero;stroke:none" />
      <path
         d="m 1117.8398,660.8125 c -0.066,2.71875 -0.1406,5.4375 -0.2109,8.16016 -0.062,2.63671 0.035,5.07421 0.051,7.74609 0.01,1.65234 -0.012,4.83203 -2.0234,4.67578 -2.2227,-0.16797 -1.6797,-2.92187 -1.6055,-4.57812 0.2344,-5.16407 0.059,-10.32813 -0.027,-15.4961"
         id="path1211"
         style="fill:#000000;fill-opacity:1;fill-rule:nonzero;stroke:none" />
      <path
         d="m 1073.7695,661.36719 c 0.066,2.71875 0.1407,5.4414 0.2071,8.16406 0.062,2.63281 -0.031,5.07031 -0.047,7.74219 -0.01,1.65234 0.012,4.83203 2.0234,4.67968 2.2188,-0.17187 1.6797,-2.92578 1.6055,-4.58203 -0.2344,-5.16406 -0.059,-10.32812 0.023,-15.49609"
         id="path1213"
         style="fill:#000000;fill-opacity:1;fill-rule:nonzero;stroke:none" />
      <path
         d="m 1084.5078,660.8125 c -0.07,2.71875 -0.1406,5.4375 -0.2109,8.16016 -0.062,2.63671 0.035,5.07421 0.051,7.74609 0.01,1.65234 -0.016,4.83203 -2.0235,4.67578 -2.2226,-0.16797 -1.6836,-2.92187 -1.6054,-4.57812 0.2343,-5.16407 0.058,-10.32813 -0.027,-15.4961"
         id="path1215"
         style="fill:#000000;fill-opacity:1;fill-rule:nonzero;stroke:none" />
      <path
         d="m 1074.3164,671.70703 c -1.5937,0.14453 -3.0898,-1.03516 -3.3242,-2.61719 l -2.082,-13.92578 c -0.2383,-1.58594 0.8281,-3.24219 2.3671,-3.6914 l 27.0079,-7.84766 c 1.539,-0.44531 3.207,-2.05469 3.7148,-3.57031 l 2.7578,-8.30078 c 0.5078,-1.51563 1.6367,-1.66407 2.5117,-0.32422 l 2.9024,4.45312 c 0.875,1.34375 2.9023,2.39063 4.5,2.33594 l 8.5,-0.30469 c 1.5976,-0.0586 3.289,-1.35937 3.7539,-2.88672 l 1.3008,-4.25781 c 0.4687,-1.52734 1.5234,-1.65625 2.3437,-0.28516 l 2.9766,4.98047 c 0.8242,1.375 2.0898,3.66407 2.8203,5.08594 l 7.3437,14.37109 c 0.7305,1.42188 0.027,2.75391 -1.5586,2.95704 l -4.8085,0.61718 c -1.586,0.19922 -4,1.05469 -5.3594,1.89453 l -9.2539,5.72266 c -1.3594,0.83984 -3.7735,1.64453 -5.3672,1.78516 l -43.0469,3.80859 z m 0,0"
         id="path1217"
         style="fill:#4fc2e6;fill-opacity:1;fill-rule:nonzero;stroke:none" />
      <path
         d="m 1124.9297,649.03906 c -0.023,1.33594 -1.1172,2.39844 -2.4492,2.37891 -1.336,-0.0195 -2.4024,-1.11719 -2.3828,-2.45313 0.019,-1.33203 1.1171,-2.39843 2.4531,-2.3789 1.332,0.0195 2.3984,1.11718 2.3789,2.45312"
         id="path1219"
         style="fill:#000000;fill-opacity:1;fill-rule:nonzero;stroke:none" />
      <path
         d="m 1132.7734,647.26172 c -0.02,1.33594 -1.1171,2.40234 -2.4531,2.38281 -1.332,-0.0234 -2.3984,-1.11719 -2.3789,-2.45312 0.02,-1.33594 1.1172,-2.39844 2.4492,-2.37891 1.336,0.0195 2.4024,1.11719 2.3828,2.44922"
         id="path1221"
         style="fill:#000000;fill-opacity:1;fill-rule:nonzero;stroke:none" />
      <path
         d="m 1077.2969,656.55859 c 0.8945,-0.8125 0.4375,-2.02734 -1.0156,-2.69531 l -38.7696,-17.90234 c -1.4531,-0.67188 -3.832,-0.67969 -5.2929,-0.0234 l -15.8477,7.14844 c -1.4609,0.65625 -1.9102,2.27343 -1.0039,3.58984 l 6.5664,9.55859 c 0.9062,1.31641 2.8555,2.89063 4.3359,3.4961 l 9.6055,3.9375 c 1.4805,0.60937 3.9805,0.87109 5.5508,0.58594 l 31.3867,-5.69532 c 1.5703,-0.28515 3.5898,-1.1875 4.4844,-2"
         id="path1223"
         style="fill:#4fc2e6;fill-opacity:1;fill-rule:nonzero;stroke:none" />
    </g>
  </g>
</svg>
