<?xml version="1.0" encoding="UTF-8" standalone="no"?>
<!-- Created with Inkscape (http://www.inkscape.org/) -->

<svg
   xmlns:svg="http://www.w3.org/2000/svg"
   xmlns="http://www.w3.org/2000/svg"
   version="1.1"
   width="58.94833"
   height="74.707977"
   id="svg5004">
  <defs
     id="defs5006" />
  <g
     transform="translate(-409.63499,-442.36784)"
     id="layer1">
    <rect
       width="0"
       height="0"
       x="180"
       y="418.07648"
       id="rect5039"
       style="fill:#0000ff;fill-rule:evenodd;stroke:#000000;stroke-width:1px;stroke-linecap:butt;stroke-linejoin:miter;stroke-opacity:1" />
    <g
       transform="matrix(1.25,0,0,1.25,-593.36207,-495.1967)"
       id="g6968">
      <path
         d="m 816.71484,802.125 c -0.125,-0.88281 0.98438,-1.21484 2.47266,-0.73438 1.48437,0.47657 3.95703,1.20313 5.49219,1.61329 l 9.35937,2.49609 c 1.53516,0.41016 3.47656,-0.36328 4.3125,-1.71875 l 1.26172,-2.05469 c 0.83594,-1.35156 1.91016,-1.21875 2.38672,0.29688 l 0.16016,0.50781 c 0.48046,1.51562 -0.0469,3.68359 -1.16407,4.8125 l -1.11718,1.12891 c -1.11719,1.1289 -3.26954,1.65234 -4.78516,1.16015 L 819.69141,804.625 c -1.51172,-0.49219 -2.85157,-1.61719 -2.97657,-2.5"
         id="path1163"
         style="fill:#000000;fill-opacity:1;fill-rule:nonzero;stroke:none" />
      <path
         d="m 829.46875,804.49609 16.15234,0.51953 c 1.58594,0.0469 3.08985,-1.19531 3.33594,-2.76562 l 0.54688,-3.47266 c 0.24609,-1.57031 -0.39844,-3.25 -1.4336,-3.73047 -1.03515,-0.48437 -2.08984,0.41016 -2.34765,1.97657 l -0.3086,1.89843 c -0.2539,1.57032 -1.76172,2.76172 -3.34765,2.64844 l -12.08985,-0.86719"
         id="path1165"
         style="fill:#000000;fill-opacity:1;fill-rule:nonzero;stroke:none" />
      <path
         d="m 832.16797,805.26172 c -1.73438,0.61719 -4.65625,0.98437 -6.49219,0.8164 l -8.04687,-0.72656 c -1.83594,-0.16797 -3.34766,-1.8125 -3.35938,-3.65234 l -0.0781,-10.75781 c -0.0117,-1.83985 -0.98047,-4.51563 -2.14844,-5.94141 l -9.01563,-11.01172 c -1.16797,-1.42578 -0.66406,-2.21875 1.1211,-1.76172 l 5.38672,1.375 c 1.78515,0.45703 3.14843,-0.67578 3.02734,-2.51562 l -0.72266,-11.04297 c -0.12109,-1.83985 1.01172,-4.21094 2.51563,-5.27344 l 4.85937,-3.42969 c 1.50782,-1.0625 4.20313,-1.57031 5.99219,-1.1289 l 6.74609,1.65625 c 1.78907,0.4375 3.625,2.25781 4.08204,4.04297 l 0.9375,3.67968 c 0.45703,1.78516 2.27734,3.65235 4.05078,4.15235 l 2.34375,0.66406 c 1.77734,0.5 1.99609,1.78516 0.49609,2.85547 l -2.00781,1.43359 c -1.50391,1.06641 -2.47656,3.42969 -2.16406,5.2461 l 4.05859,23.69921 c 0.3125,1.81641 -0.85156,3.8086 -2.58984,4.42579 l -8.99219,3.19531 z m 0,0"
         id="path1277"
         style="fill:#4cc2e6;fill-opacity:1;fill-rule:nonzero;stroke:none" />
      <path
         d="m 834.64453,801.78516 c -1.72266,0.64843 -4.37891,0.78515 -5.90234,0.29687 -1.52344,-0.48828 -2.76172,-2.39453 -2.75391,-4.23828 l 0.0703,-16.33203 c 0.0117,-1.84375 1.48047,-3.70313 3.27344,-4.13281 l 5.30469,-1.27735 c 1.79297,-0.42969 3.47656,0.71094 3.73828,2.53516 l 2.50781,17.29687 c 0.26563,1.82032 -0.92578,3.84766 -2.65234,4.4961 l -3.58594,1.35547 z m 0,0"
         id="path1279"
         style="fill:#ffffff;fill-opacity:1;fill-rule:nonzero;stroke:none" />
      <path
         d="m 827.21094,761.27344 c -0.5,0.90234 -1.64453,1.23047 -2.55078,0.72656 -0.89844,-0.50391 -1.22657,-1.64453 -0.72266,-2.55078 0.50391,-0.90235 1.64453,-1.22656 2.55078,-0.72266 0.90234,0.50391 1.22656,1.64453 0.72266,2.54688"
         id="path1281"
         style="fill:#000000;fill-opacity:1;fill-rule:nonzero;stroke:none" />
      <path
         d="m 833.49609,759.66406 c -0.5039,0.91016 -1.64062,1.23047 -2.54687,0.72656 -0.90235,-0.5039 -1.22656,-1.64453 -0.72656,-2.54687 0.5039,-0.90625 1.64453,-1.23047 2.55078,-0.73047 0.90234,0.50391 1.22656,1.64844 0.72265,2.55078"
         id="path1283"
         style="fill:#000000;fill-opacity:1;fill-rule:nonzero;stroke:none" />
      <path
         d="m 829.01172,806.61719 c 1.00781,0.0664 2.26172,-0.1836 2.78515,-0.5625 0.52735,-0.375 1.8711,-0.48828 2.9961,-0.2461 1.12109,0.23828 2.72265,-0.67187 3.55859,-2.02734 l 1.26563,-2.05469 c 0.83203,-1.35156 1.90625,-1.21875 2.38281,0.29688 l 0.16016,0.50781 c 0.48046,1.51562 -0.0469,3.68359 -1.16407,4.8125 l -1.11718,1.12891 c -1.1211,1.1289 -3.25391,1.59375 -4.73829,1.03125 l -5.2539,-1.98829 c -1.48828,-0.5625 -1.88281,-0.96875 -0.875,-0.89843"
         id="path1307"
         style="fill:#000000;fill-opacity:1;fill-rule:nonzero;stroke:none" />
    </g>
  </g>
</svg>
