<?xml version="1.0" encoding="UTF-8" standalone="no"?>
<!-- Created with Inkscape (http://www.inkscape.org/) -->

<svg
   xmlns:svg="http://www.w3.org/2000/svg"
   xmlns="http://www.w3.org/2000/svg"
   version="1.1"
   width="62.979046"
   height="67.854614"
   id="svg5004">
  <defs
     id="defs5006" />
  <g
     transform="translate(-406.46594,-438.84253)"
     id="layer1">
    <rect
       width="0"
       height="0"
       x="180"
       y="418.07648"
       id="rect5039"
       style="fill:#0000ff;fill-rule:evenodd;stroke:#000000;stroke-width:1px;stroke-linecap:butt;stroke-linejoin:miter;stroke-opacity:1" />
    <g
       transform="matrix(1.25,0,0,1.25,-371.83818,-511.48417)"
       id="g6781">
      <path
         d="m 639.55469,793.66797 -0.3125,15.09765 c -0.0352,1.58985 1.05468,3.55469 2.42187,4.3711 l 1.36328,0.80859 c 1.36719,0.8125 3.59375,0.79688 4.95313,-0.0312 l 0.45703,-0.27734 c 1.35156,-0.83203 1.22266,-1.90625 -0.29297,-2.38672 l -2.29687,-0.73047 c -1.51563,-0.48437 -2.73438,-2.17969 -2.70704,-3.76953 l 0.20704,-12.57813"
         id="path1287"
         style="fill:#000000;fill-opacity:1;fill-rule:nonzero;stroke:none" />
      <path
         d="m 654.09766,791.01172 -0.51563,16.14844 c -0.0508,1.58984 1.19141,3.08984 2.76172,3.33984 l 3.47656,0.54297 c 1.56641,0.24609 3.25,-0.39844 3.72656,-1.4336 0.48438,-1.03515 -0.41406,-2.05078 -1.99218,-2.2539 l -1.91407,-0.2461 c -1.57812,-0.20312 -2.77343,-1.66796 -2.65625,-3.2539 l 0.90625,-12.33985"
         id="path1289"
         style="fill:#000000;fill-opacity:1;fill-rule:nonzero;stroke:none" />
      <path
         d="m 661.70312,798.54687 c 0.14454,1.83985 -1.14843,3.8711 -2.87109,4.51563 l -7.08594,2.65625 c -1.72656,0.64844 -4.5664,0.69922 -6.3164,0.11719 l -7.46094,-2.48828 c -1.74609,-0.58594 -3,-2.5586 -2.78516,-4.39063 l 0.85938,-7.24609 c 0.21875,-1.82813 -1.11328,-3.39453 -2.94922,-3.48438 l -8.85547,-0.41406 c -1.83984,-0.0859 -2.13281,-1.05078 -0.64453,-2.14453 l 13.25391,-9.7461 c 1.48437,-1.08984 3.66796,-3.14062 4.85546,-4.55078 l 7.21094,-8.58593 c 1.1836,-1.41016 3.66406,-2.54688 5.50391,-2.52344 l 8.48047,0.10156 c 1.84375,0.0234 4.14843,1.32031 5.12109,2.88281 l 4.32031,6.9336 c 0.97657,1.5625 0.90235,4.07422 -0.16406,5.57812 l -0.96875,1.36328 c -1.06641,1.50391 -1.57031,4.19532 -1.12109,5.98438 l 0.75,3.00781 c 0.44531,1.78906 -0.33985,2.28125 -1.75,1.09375 l -1.82422,-1.53516 c -1.41016,-1.1875 -3.14063,-0.76953 -3.84766,0.9336 l -0.94922,2.27734 c -0.70703,1.69922 -1.16797,4.59375 -1.02343,6.42969 l 0.26171,3.23437 z m 0,0"
         id="path1291"
         style="fill:#4cc2e6;fill-opacity:1;fill-rule:nonzero;stroke:none" />
      <path
         d="m 652.80078,802.69922 c -1.72266,0.64844 -4.21094,0.48828 -5.52734,-0.36328 -1.32032,-0.85157 -2.10547,-3.02344 -1.75,-4.83203 l 1.24609,-6.37891 c 0.35156,-1.80859 2.10938,-3.63281 3.90234,-4.05469 l 7.26954,-1.70312 c 1.79296,-0.42188 2.79296,0.66797 2.22265,2.42187 l -0.70312,2.16406 c -0.56641,1.75 -0.80469,4.67579 -0.51953,6.4961 l 0.0625,0.40234 c 0.28515,1.82031 -0.89454,3.84375 -2.61719,4.49219 l -3.58594,1.35547 z m 0,0"
         id="path1293"
         style="fill:#ffffff;fill-opacity:1;fill-rule:nonzero;stroke:none" />
      <path
         d="m 662.18359,774.43359 c -0.91015,0.48047 -2.04687,0.125 -2.52734,-0.79297 -0.48047,-0.91796 -0.125,-2.05078 0.79687,-2.53125 0.91407,-0.47656 2.04688,-0.12109 2.52735,0.79688 0.47656,0.91797 0.12109,2.04687 -0.79688,2.52734"
         id="path1295"
         style="fill:#000000;fill-opacity:1;fill-rule:nonzero;stroke:none" />
      <path
         d="m 668.32422,776.53906 c -0.92188,0.48828 -2.05078,0.12891 -2.53125,-0.78906 -0.47656,-0.91797 -0.125,-2.05078 0.79297,-2.52734 0.91797,-0.48047 2.05078,-0.125 2.53125,0.78906 0.47656,0.91797 0.12109,2.05078 -0.79297,2.52734"
         id="path1297"
         style="fill:#000000;fill-opacity:1;fill-rule:nonzero;stroke:none" />
    </g>
  </g>
</svg>
