<?xml version="1.0" encoding="UTF-8" standalone="no"?>
<!-- Created with Inkscape (http://www.inkscape.org/) -->

<svg
   xmlns:svg="http://www.w3.org/2000/svg"
   xmlns="http://www.w3.org/2000/svg"
   version="1.1"
   width="47.059471"
   height="85.108231"
   id="svg5004">
  <defs
     id="defs5006" />
  <g
     transform="translate(-425.45546,-418.01875)"
     id="layer1">
    <rect
       width="0"
       height="0"
       x="180"
       y="418.07648"
       id="rect5039"
       style="fill:#0000ff;fill-rule:evenodd;stroke:#000000;stroke-width:1px;stroke-linecap:butt;stroke-linejoin:miter;stroke-opacity:1" />
    <g
       transform="matrix(1.25,0,0,1.25,-264.7175,-515.05434)"
       id="g6712">
      <path
         d="m 564.38672,793.66797 -0.3125,15.09765 c -0.0352,1.58985 1.05469,3.55469 2.42187,4.3711 l 1.36719,0.80859 c 1.36719,0.8125 3.59375,0.79688 4.94922,-0.0312 l 0.45703,-0.27734 c 1.35547,-0.83203 1.22266,-1.90625 -0.28906,-2.38672 l -2.30078,-0.73047 c -1.51563,-0.48437 -2.73438,-2.17969 -2.70703,-3.76953 l 0.20703,-12.57813"
         id="path1265"
         style="fill:#000000;fill-opacity:1;fill-rule:nonzero;stroke:none" />
      <path
         d="m 578.92969,791.01172 -0.51563,16.14844 c -0.0508,1.58984 1.19531,3.08984 2.76172,3.33984 l 3.47656,0.54297 c 1.57032,0.24609 3.25,-0.39844 3.73047,-1.4336 0.48047,-1.03515 -0.41797,-2.05078 -1.99219,-2.2539 l -1.91796,-0.2461 c -1.57422,-0.20312 -2.76954,-1.66796 -2.65235,-3.2539 l 0.90235,-12.33985"
         id="path1267"
         style="fill:#000000;fill-opacity:1;fill-rule:nonzero;stroke:none" />
      <path
         d="m 576.57812,805.71875 c -1.72656,0.64844 -4.63281,0.98047 -6.46093,0.74219 l -7.50391,-0.98047 c -1.82812,-0.23828 -3.29297,-1.94141 -3.25391,-3.78125 l 0.11719,-5.72656 c 0.0391,-1.84375 -1.17578,-2.50391 -2.70312,-1.46485 l -2.52344,1.71485 c -1.52734,1.03515 -2.42969,0.41406 -2.00781,-1.37891 l 3.84765,-16.33984 c 0.42188,-1.79297 0.7461,-4.76563 0.71875,-6.60938 l -0.21484,-15.4375 c -0.0273,-1.84375 1.18359,-4.21875 2.6875,-5.28125 l 4.85937,-3.42578 c 1.50391,-1.0625 4.20313,-1.57422 5.99219,-1.13281 l 6.7461,1.65625 c 1.78906,0.4414 3.625,2.25781 4.08203,4.04687 l 0.9375,3.67578 c 0.45312,1.78516 2.28125,3.65625 4.05078,4.15625 l 2.34765,0.66016 c 1.76954,0.50391 1.9961,1.78516 0.4961,2.85547 l -2.01563,1.43359 c -1.5,1.07031 -2.49609,3.4336 -2.21484,5.25391 l 4.24219,27.27734 c 0.28125,1.82031 -0.90235,3.83985 -2.625,4.48828 l -9.60157,3.59766 z m 0,0"
         id="path1269"
         style="fill:#4cc2e6;fill-opacity:1;fill-rule:nonzero;stroke:none" />
      <path
         d="m 579.64453,801.78516 c -1.72266,0.64843 -4.37891,0.78515 -5.90234,0.29687 -1.52344,-0.48828 -2.76953,-2.39453 -2.76563,-4.23828 l 0.0195,-19.92578 c 0.004,-1.83985 1.46875,-3.69922 3.26172,-4.13281 l 5.3086,-1.27344 c 1.78906,-0.4336 3.44531,0.71094 3.68359,2.53906 l 2.6875,20.875 c 0.23437,1.82813 -0.98047,3.85547 -2.70703,4.50391 l -3.58594,1.35547 z m 0,0"
         id="path1271"
         style="fill:#ffffff;fill-opacity:1;fill-rule:nonzero;stroke:none" />
      <path
         d="m 572.13672,757.67969 c -0.5,0.90625 -1.64453,1.23047 -2.55078,0.72656 -0.89844,-0.50391 -1.22657,-1.64063 -0.72266,-2.55078 0.50391,-0.89844 1.64453,-1.22266 2.55078,-0.72266 0.90235,0.50391 1.22656,1.64453 0.72266,2.54688"
         id="path1273"
         style="fill:#000000;fill-opacity:1;fill-rule:nonzero;stroke:none" />
      <path
         d="m 578.42187,756.07031 c -0.5039,0.91016 -1.64062,1.23047 -2.54687,0.73047 -0.90234,-0.50781 -1.22656,-1.64453 -0.72656,-2.55078 0.5039,-0.90234 1.64453,-1.23047 2.55078,-0.72656 0.90234,0.5039 1.22656,1.64453 0.72265,2.54687"
         id="path1275"
         style="fill:#000000;fill-opacity:1;fill-rule:nonzero;stroke:none" />
    </g>
  </g>
</svg>
