<?xml version="1.0" encoding="UTF-8" standalone="no"?>
<!-- Created with Inkscape (http://www.inkscape.org/) -->

<svg
   xmlns:svg="http://www.w3.org/2000/svg"
   xmlns="http://www.w3.org/2000/svg"
   version="1.1"
   width="51.142136"
   height="82.477936"
   id="svg5004">
  <defs
     id="defs5006" />
  <g
     transform="translate(-424.82344,-429.38675)"
     id="layer1">
    <rect
       width="0"
       height="0"
       x="180"
       y="418.07648"
       id="rect5039"
       style="fill:#0000ff;fill-rule:evenodd;stroke:#000000;stroke-width:1px;stroke-linecap:butt;stroke-linejoin:miter;stroke-opacity:1" />
    <g
       transform="matrix(1.25,0,0,1.25,-469.57675,-506.29401)"
       id="g6850">
      <path
         d="m 731.43359,793.66797 0.16407,15.23828 c 0.0195,1.58984 1.13281,3.58594 2.48046,4.43359 l 0.86719,0.54297 c 1.34375,0.84766 3.55469,0.85938 4.91406,0.0312 l 0.45313,-0.27734 c 1.35547,-0.83203 1.22656,-1.90625 -0.28906,-2.38672 l -2.30078,-0.73047 c -1.51563,-0.48437 -2.73047,-2.17969 -2.70704,-3.76953 l 0.20704,-12.57813"
         id="path1251"
         style="fill:#000000;fill-opacity:1;fill-rule:nonzero;stroke:none" />
      <path
         d="m 743.07422,791.01172 -0.51563,16.14844 C 742.50781,808.75 743.75,810.25 745.32031,810.5 l 3.47656,0.54297 c 1.56641,0.24609 3.00782,-0.33985 3.19141,-1.30469 0.1875,-0.96875 -0.9375,-2 -2.5,-2.29297 l -0.89844,-0.17187 c -1.5625,-0.29297 -2.74609,-1.83203 -2.6289,-3.41797 l 0.90625,-12.33985"
         id="path1253"
         style="fill:#000000;fill-opacity:1;fill-rule:nonzero;stroke:none" />
      <path
         d="m 741.875,805.70312 c -1.72266,0.65625 -4.625,1 -6.44922,0.75782 l -7.50781,-0.98047 c -1.82813,-0.23828 -3.42578,-1.9375 -3.55469,-3.77344 l -0.33594,-4.84375 c -0.125,-1.83984 -1.41015,-2.40625 -2.85156,-1.25781 l -1.87109,1.48437 c -1.44532,1.14844 -2.32032,0.60938 -1.94922,-1.19531 l 3.51562,-17.16016 c 0.36719,-1.80468 -0.11328,-4.57031 -1.07031,-6.14062 l -3.23828,-5.30859 c -0.95703,-1.57422 -1.32422,-4.3086 -0.80859,-6.07813 l 2.05078,-7.05859 c 0.51172,-1.76953 2.42187,-3.45703 4.24218,-3.7461 l 11.21094,-1.80078 c 1.82031,-0.28906 4.35938,0.55078 5.64844,1.8711 l 2.21094,2.26562 c 1.28906,1.32031 3.78515,1.96094 5.54687,1.42578 l 2.32422,-0.70312 c 1.76172,-0.53516 2.58203,0.40234 1.82422,2.07812 l -2.41016,5.32031 c -0.75781,1.67579 -0.96875,4.5 -0.46484,6.27344 l 8.36719,29.48828 c 0.5,1.77344 -0.4961,3.76172 -2.21875,4.41797 l -12.21094,4.66406 z m 0,0"
         id="path1255"
         style="fill:#4cc2e6;fill-opacity:1;fill-rule:nonzero;stroke:none" />
      <path
         d="m 745.33203,802.36719 c -1.70703,0.6914 -4.125,0.75 -5.375,0.1289 -1.24609,-0.62109 -2.34375,-2.63672 -2.4375,-4.47656 l -1.04297,-20.10547 c -0.0937,-1.83984 1.22266,-3.91406 2.92578,-4.61328 l 4.71875,-1.93359 c 1.70703,-0.69922 3.49219,0.1875 3.97266,1.96484 l 5.89844,21.9375 c 0.48047,1.78125 -0.52344,3.80078 -2.23047,4.49219 l -6.42969,2.60547 z m 0,0"
         id="path1257"
         style="fill:#ffffff;fill-opacity:1;fill-rule:nonzero;stroke:none" />
      <path
         d="m 734.38672,758.51953 c 0.0312,1.03125 -0.78516,1.89453 -1.82031,1.92578 -1.03516,0.0234 -1.89844,-0.78906 -1.92579,-1.82812 -0.0234,-1.03125 0.79297,-1.89063 1.82422,-1.92188 1.03516,-0.0273 1.89844,0.78906 1.92188,1.82422"
         id="path1259"
         style="fill:#000000;fill-opacity:1;fill-rule:nonzero;stroke:none" />
      <path
         d="m 738.97656,753.92969 c 0.0312,1.03906 -0.78515,1.89453 -1.82031,1.92578 -1.03516,0.0273 -1.89844,-0.78906 -1.92578,-1.82031 -0.0234,-1.03907 0.78906,-1.89844 1.82422,-1.92969 1.03125,-0.0234 1.89453,0.79297 1.92187,1.82422"
         id="path1261"
         style="fill:#000000;fill-opacity:1;fill-rule:nonzero;stroke:none" />
    </g>
  </g>
</svg>
