<?xml version="1.0" encoding="UTF-8" standalone="no"?>
<!-- Created with Inkscape (http://www.inkscape.org/) -->

<svg
   xmlns:svg="http://www.w3.org/2000/svg"
   xmlns="http://www.w3.org/2000/svg"
   version="1.1"
   width="146.45901"
   height="102.42119"
   id="svg5004">
  <defs
     id="defs5006" />
  <g
     transform="translate(-369.34233,-413.50882)"
     id="layer1">
    <rect
       width="0"
       height="0"
       x="180"
       y="418.07648"
       id="rect5039"
       style="fill:#0000ff;fill-rule:evenodd;stroke:#000000;stroke-width:1px;stroke-linecap:butt;stroke-linejoin:miter;stroke-opacity:1" />
    <g
       id="g6678">
      <path
         d="m 450.36939,490.19552 c 0.083,3.39844 0.1709,6.79688 0.2588,10.2002 0.0781,3.2959 -0.039,6.34278 -0.0635,9.68262 -0.01,2.06543 0.0195,6.04005 2.53418,5.84473 2.77344,-0.20996 2.09962,-3.65235 2.00195,-5.72266 -0.29296,-6.45508 -0.0732,-12.91015 0.0341,-19.37011"
         id="path1171"
         style="fill:#000000;fill-opacity:1;fill-rule:nonzero;stroke:none" />
      <path
         d="m 463.78736,489.49729 c -0.083,3.40332 -0.1709,6.80176 -0.25879,10.20507 -0.0781,3.2959 0.039,6.34277 0.0586,9.67774 0.0146,2.06542 -0.0146,6.04492 -2.52928,5.84961 -2.77344,-0.21485 -2.09962,-3.65235 -2.00684,-5.72266 0.29785,-6.45508 0.0732,-12.91015 -0.0292,-19.375"
         id="path1173"
         style="fill:#000000;fill-opacity:1;fill-rule:nonzero;stroke:none" />
      <path
         d="m 473.98268,478.50607 c 4.6582,-0.0733 8.74023,-3.125 12.37305,-5.52733 3.79882,-2.51466 7.01171,-4.81447 9.35058,-9.02344 1.10352,-1.98243 1.94335,-5.06837 4.34082,-5.86915 4.67773,-1.57227 4.21387,2.92481 2.66113,5.50293 -5.77637,9.59962 -17.17773,17.40723 -28.23731,19.54102"
         id="path1175"
         style="fill:#000000;fill-opacity:1;fill-rule:nonzero;stroke:none" />
      <path
         d="m 512.56174,460.16624 c -0.27825,1.68944 -1.88963,2.85156 -3.57913,2.58299 l -11.0351,-1.73827 c -1.68456,-0.26856 -2.84178,-1.86524 -2.56347,-3.55469 l 3.20312,-19.53614 c 0.27833,-1.68456 1.88478,-2.85156 3.57423,-2.583 l 11.03022,1.74804 c 1.6895,0.26857 2.84675,1.87013 2.56838,3.55469 l -3.19825,19.52638 z m 0,0"
         id="path1179"
         style="fill:#4fc2e6;fill-opacity:1;fill-rule:nonzero;stroke:none" />
      <path
         d="m 510.20824,459.78537 -12.17771,-2.41211 2.9248,-19.57519 12.09478,2.2412 -2.84187,19.7461 z m 0,0"
         id="path1181"
         style="fill:#232323;fill-opacity:1;fill-rule:nonzero;stroke:none" />
      <path
         d="m 437.88404,500.92307 c -2.20703,0 -3.94532,-1.80176 -3.86719,-4.0088 l 1.85059,-51.27928 c 0.0781,-2.20216 0.0195,-5.80567 -0.13672,-8.00782 l -0.25878,-3.78419 c -0.15625,-2.20214 1.38182,-3.29101 3.4082,-2.42674 l 8.63768,3.70116 c 2.03125,0.86915 5.49318,1.66016 7.69532,1.76759 l 11.70898,0.56152 c 2.20704,0.10738 5.33204,-1.03027 6.95802,-2.5293 l 2.37305,-2.19239 c 1.62109,-1.49414 3.69629,-1.07421 4.60449,0.93263 l 0.70801,1.57226 c 0.91307,2.01171 2.21191,5.37109 2.88574,7.4707 l 4.2627,13.22266 c 0.67382,2.0996 -0.044,5.09765 -1.59669,6.66504 l -3.49609,3.5205 c -1.55274,1.56739 -3.2666,4.59961 -3.80371,6.7334 l -6.10351,24.16992 c -0.542,2.13868 -2.78322,3.89161 -4.99024,3.89161 l -30.83985,0.0195 z m 0,0"
         id="path1183"
         style="fill:#e66e33;fill-opacity:1;fill-rule:nonzero;stroke:none" />
      <path
         d="m 466.01881,455.77658 c -0.18067,1.83594 -1.80665,3.16894 -3.6377,2.98828 -1.83594,-0.18066 -3.16895,-1.81152 -2.99316,-3.64257 0.18555,-1.83105 1.81152,-3.16895 3.64746,-2.98828 1.82616,0.18066 3.16406,1.8164 2.9834,3.64257"
         id="path1185"
         style="fill:#000000;fill-opacity:1;fill-rule:nonzero;stroke:none" />
      <path
         d="m 477.00025,454.24338 c -0.18066,1.83594 -1.81152,3.16894 -3.64257,2.98828 -1.83105,-0.18066 -3.16407,-1.81153 -2.98829,-3.64258 0.18067,-1.82617 1.81152,-3.16406 3.64259,-2.9834 1.82616,0.17578 3.16893,1.81153 2.98827,3.6377"
         id="path1187"
         style="fill:#000000;fill-opacity:1;fill-rule:nonzero;stroke:none" />
      <path
         d="m 438.10376,500.64475 c 0.33693,-0.4541 0.3418,-2.6123 0.005,-4.79004 l -9.01367,-58.17383 c -0.34179,-2.17773 -2.15332,-4.90234 -4.03809,-6.04981 l -28.56933,-17.46581 c -1.87988,-1.15235 -4.61915,-0.74707 -6.08398,0.89844 l -19.08204,21.37695 c -1.46484,1.64062 -2.30469,4.75097 -1.86035,6.91406 l 5.61524,27.30956 c 0.44434,2.16309 2.45605,3.18849 4.46777,2.28516 l 6.91894,-3.11035 c 2.01172,-0.90332 5.13184,-0.60547 6.9336,0.66407 l 40.80566,28.66211 c 1.80176,1.26953 3.55958,1.93359 3.90136,1.47949"
         id="path1189"
         style="fill:#e66e33;fill-opacity:1;fill-rule:nonzero;stroke:none" />
      <path
         d="m 473.96314,484.50705 c 0.0538,-3.05175 -0.27831,-5.76172 -3.63281,-6.91894 -1.91407,-0.66406 -6.08398,-0.68848 -7.22168,-0.11712 -1.10351,0.55663 -1.69434,2.17772 -0.83984,3.30077 1.25,1.64551 3.88183,-0.083 5.48339,0.91309 2.68068,1.65527 0.0586,5.95215 2.44141,7.00195 3.10059,1.36231 3.74024,-2.41699 3.76953,-4.17969"
         id="path1191"
         style="fill:#000000;fill-opacity:1;fill-rule:nonzero;stroke:none" />
      <path
         d="m 496.51198,463.74045 c -0.0635,-1.32324 1.60643,-5.25879 3.09081,-5.4248 2.91992,-0.33204 0.26367,6.51855 -0.0341,7.22656"
         id="path1193"
         style="fill:#000000;fill-opacity:1;fill-rule:nonzero;stroke:none" />
    </g>
  </g>
</svg>
