<?xml version="1.0" encoding="UTF-8" standalone="no"?>
<!-- Created with Inkscape (http://www.inkscape.org/) -->

<svg
   xmlns:svg="http://www.w3.org/2000/svg"
   xmlns="http://www.w3.org/2000/svg"
   version="1.1"
   width="119.9263"
   height="100.24093"
   id="svg5004">
  <defs
     id="defs5006" />
  <g
     transform="translate(-380.07183,-401.62135)"
     id="layer1">
    <rect
       width="0"
       height="0"
       x="180"
       y="418.07648"
       id="rect5039"
       style="fill:#0000ff;fill-rule:evenodd;stroke:#000000;stroke-width:1px;stroke-linecap:butt;stroke-linejoin:miter;stroke-opacity:1" />
    <g
       transform="matrix(1.25,0,0,1.25,-931.24221,-512.8871)"
       id="g6549">
      <path
         d="m 1140.7617,788.45703 c 0.035,-2.16797 -0.1953,-4.09766 -2.5859,-4.92187 -1.3555,-0.46875 -4.3242,-0.48829 -5.1328,-0.082 -0.7852,0.39844 -1.2071,1.54688 -0.5977,2.34766 0.8867,1.16797 2.7578,-0.0586 3.8985,0.64844 1.9062,1.17969 0.039,4.23437 1.7382,4.98047 2.1993,0.96484 2.6563,-1.71875 2.6797,-2.97266"
         id="path1157"
         style="fill:#000000;fill-opacity:1;fill-rule:nonzero;stroke:none" />
      <path
         d="m 1116.4609,798.94922 c -0.3906,1.88281 0.02,3.79687 -0.1484,5.69531 -0.1328,1.51953 -0.793,3.46875 -2.5781,3.69531 -1.1094,0.13672 -2.211,0.27735 -3.3281,0.34766 -1.0977,0.0703 -3.2774,0.0664 -3.129,-1.5625 0.035,-0.34766 0.039,-0.75781 0.3204,-0.99609 0.2929,-0.2461 0.7461,-0.34375 1.1015,-0.4336 0.7305,-0.1875 1.4727,-0.25781 2.2149,-0.375 1.039,-0.16406 1.7461,-0.47265 2.0195,-1.57031 0.125,-0.50391 0.1328,-0.97266 0.1523,-1.48828 0.012,-0.39844 -0.1015,-1.05078 0.074,-1.40625"
         id="path1195"
         style="fill:#000000;fill-opacity:1;fill-rule:nonzero;stroke:none" />
      <path
         d="m 1123.4297,799.20312 c 0.7891,2.39454 2.6211,4.07422 2.9101,6.69922 0.051,0.44532 0.059,0.90625 -0.07,1.34766 -0.3906,1.3125 -1.6992,2.21094 -2.6289,3.12109 -0.6562,0.64063 -1.6133,1.53516 -2.6172,1.41797 -0.6718,-0.082 -1.5937,-1.14844 -1.5156,-1.8164 0.082,-0.71094 0.9102,-1.29297 1.4688,-1.64844 0.75,-0.47656 1.3007,-1.20313 1.539,-2.07422 0.062,-0.22656 0.062,-0.53125 0.039,-0.76563 -0.043,-0.37109 -0.2891,-0.80468 -0.4297,-1.14843 -0.1719,-0.4336 -0.4062,-0.83594 -0.6016,-1.25782 -0.207,-0.4414 -0.3554,-0.9414 -0.5898,-1.36328 -0.2734,-0.49218 -0.7656,-0.84375 -0.9414,-1.38672"
         id="path1197"
         style="fill:#000000;fill-opacity:1;fill-rule:nonzero;stroke:none" />
      <path
         d="m 1104.1289,801.72266 c -1.7656,0 -3.1562,-1.44141 -3.0937,-3.20704 l 1.4765,-41.02343 c 0.062,-1.76172 0.016,-4.64453 -0.1054,-6.40625 l -0.211,-3.02735 c -0.1211,-1.76172 1.1055,-2.63281 2.7266,-1.9414 l 6.914,2.96093 c 1.6211,0.69532 4.3907,1.32813 6.1524,1.41407 l 9.3672,0.44922 c 1.7656,0.0859 4.2656,-0.82422 5.5664,-2.02344 l 1.9023,-1.75391 c 1.2969,-1.19531 2.9531,-0.85937 3.6797,0.7461 l 0.5703,1.25781 c 0.7266,1.60937 1.7656,4.29687 2.3086,5.97656 l 3.4063,10.57813 c 0.539,1.67968 -0.031,4.07812 -1.2774,5.33203 l -2.7969,2.8164 c -1.2421,1.25391 -2.6132,3.67969 -3.0429,5.38672 l -4.8828,19.33594 c -0.4297,1.71094 -2.2266,3.11328 -3.9922,3.11328 l -24.668,0.0156 z m 0,0"
         id="path1199"
         style="fill:#e66e33;fill-opacity:1;fill-rule:nonzero;stroke:none" />
      <path
         d="m 1126.6328,765.60547 c -0.1445,1.46875 -1.4453,2.53515 -2.9101,2.39062 -1.4688,-0.14453 -2.5352,-1.44922 -2.3946,-2.91406 0.1485,-1.46484 1.4492,-2.53516 2.918,-2.39062 1.4609,0.14453 2.5312,1.45312 2.3867,2.91406"
         id="path1201"
         style="fill:#000000;fill-opacity:1;fill-rule:nonzero;stroke:none" />
      <path
         d="m 1135.418,764.37891 c -0.1446,1.46875 -1.4492,2.53515 -2.9141,2.39062 -1.4648,-0.14453 -2.5312,-1.44922 -2.3906,-2.91406 0.1445,-1.46094 1.4492,-2.53125 2.914,-2.38672 1.461,0.14062 2.5352,1.44922 2.3907,2.91016"
         id="path1203"
         style="fill:#000000;fill-opacity:1;fill-rule:nonzero;stroke:none" />
      <path
         d="m 1104.0547,801.3125 c 0.2734,-0.36328 0.2773,-2.08594 0.01,-3.82813 l -7.2148,-46.53906 c -0.2696,-1.74609 -1.7227,-3.92187 -3.2266,-4.84375 l -22.8555,-13.97265 c -1.5039,-0.91797 -3.6953,-0.59375 -4.8711,0.72265 l -15.2617,17.09766 c -1.1758,1.3164 -1.8437,3.80469 -1.4883,5.53125 l 4.4961,21.85156 c 0.3516,1.72656 1.961,2.55078 3.5664,1.82813 l 5.5352,-2.49219 c 1.6133,-0.71875 4.1094,-0.48047 5.5508,0.53125 l 32.6445,22.93359 c 1.4414,1.01172 2.8477,1.54297 3.1172,1.17969"
         id="path1205"
         style="fill:#e66e33;fill-opacity:1;fill-rule:nonzero;stroke:none" />
      <path
         d="m 1132.9883,788.58984 c 0.043,-2.4414 -0.2188,-4.60937 -2.9063,-5.53515 -1.5273,-0.53125 -4.8632,-0.55078 -5.7734,-0.0937 -0.8867,0.44531 -1.3594,1.74218 -0.6758,2.64062 1,1.31641 3.1055,-0.0664 4.3867,0.73047 2.1446,1.32422 0.047,4.76172 1.9532,5.60156 2.4804,1.08985 2.9921,-1.93359 3.0156,-3.34375"
         id="path1207"
         style="fill:#000000;fill-opacity:1;fill-rule:nonzero;stroke:none" />
    </g>
  </g>
</svg>
