<?xml version="1.0" encoding="UTF-8" standalone="no"?>
<!-- Created with Inkscape (http://www.inkscape.org/) -->

<svg
   xmlns:svg="http://www.w3.org/2000/svg"
   xmlns="http://www.w3.org/2000/svg"
   version="1.1"
   width="81.914497"
   height="54.467354"
   id="svg5004">
  <defs
     id="defs5006" />
  <g
     transform="translate(-341.76521,-434.27785)"
     id="layer1">
    <rect
       width="0"
       height="0"
       x="180"
       y="418.07648"
       id="rect5039"
       style="fill:#0000ff;fill-rule:evenodd;stroke:#000000;stroke-width:1px;stroke-linecap:butt;stroke-linejoin:miter;stroke-opacity:1" />
    <g
       transform="matrix(1.25,0,0,1.25,-994.18166,215.2007)"
       id="g6099">
      <path
         d="m 1094.7813,206.6875 0.2617,10.23437 c 0.023,0.96485 0.832,1.79688 1.7968,1.85547 l 0.8438,0.0508 c 0.9609,0.0586 1.7852,-0.23437 1.8281,-0.65234 0.043,-0.41406 -0.5234,-0.98828 -1.2539,-1.27734 -0.7305,-0.28907 -1.3164,-1.3125 -1.3008,-2.27735 l 0.125,-7.625"
         id="path723"
         style="fill:#000000;fill-opacity:1;fill-rule:nonzero;stroke:none" />
      <path
         d="m 1099.7031,204.80078 0.2617,10.23047 c 0.024,0.96484 0.8321,1.78906 1.793,1.83203 l 1.1094,0.0547 c 0.9609,0.043 1.7812,-0.26563 1.8203,-0.6836 0.039,-0.42187 -0.5859,-0.98437 -1.3828,-1.25781 -0.8008,-0.26953 -1.4453,-1.28125 -1.4297,-2.24219 l 0.125,-7.6289"
         id="path725"
         style="fill:#000000;fill-opacity:1;fill-rule:nonzero;stroke:none" />
      <path
         d="m 1086.6484,198.58984 5.5743,-12.01953 c 0.5625,-1.21875 2.0156,-2.6875 3.2265,-3.26172 l 3.6563,-1.74218 c 1.2109,-0.57422 3.207,-0.60938 4.4375,-0.0742 l 3.7187,1.62109 c 1.2305,0.53516 2.4844,1.90234 2.7813,3.03516 0.3008,1.13672 1.6289,2.2539 2.9492,2.49218 l 2.7187,0.48047 c 1.3243,0.23438 1.5313,1.08985 0.461,1.90235 l -2.4141,1.83203 c -1.0703,0.8125 -2.3906,2.48047 -2.9336,3.70703 l -3.3594,7.56641 c -0.5468,1.22656 -2.0117,2.63281 -3.2617,3.125 l -4.5273,1.77734 c -1.2461,0.49219 -3.2969,0.50781 -4.5508,0.0312 l -4.8398,-1.82813 c -1.2539,-0.47656 -2.7891,-1.83593 -3.4102,-3.02734 l -1.5898,-3.03125"
         id="path727"
         style="fill:#4cc2e6;fill-opacity:1;fill-rule:nonzero;stroke:none" />
      <path
         d="m 1103.9805,190.90625 c -0.3633,0.66016 -1.1953,0.89453 -1.8555,0.53125 -0.6562,-0.37109 -0.8945,-1.19922 -0.5273,-1.85938 0.3671,-0.65625 1.1992,-0.89062 1.8593,-0.52734 0.6563,0.36719 0.8907,1.19531 0.5235,1.85547"
         id="path729"
         style="fill:#000000;fill-opacity:1;fill-rule:nonzero;stroke:none" />
      <path
         d="m 1108.5586,189.73437 c -0.3633,0.66407 -1.1953,0.89454 -1.8516,0.53125 -0.6601,-0.36718 -0.8984,-1.19921 -0.5351,-1.85546 0.3711,-0.66016 1.1992,-0.89844 1.8594,-0.53125 0.6562,0.36718 0.8945,1.19921 0.5273,1.85546"
         id="path731"
         style="fill:#000000;fill-opacity:1;fill-rule:nonzero;stroke:none" />
      <path
         d="m 1110.8008,179.08984 5.9219,-1.33593 0.031,1.24609 -2.2539,0.48828 0.8516,3.91406 -1.3985,-0.10156 -0.4765,-3.54687 -2.5743,0.73437 -0.1015,-1.39844 z m 0,0"
         id="path733"
         style="fill:#eb008a;fill-opacity:1;fill-rule:nonzero;stroke:none" />
      <path
         d="m 1128.4102,175.99219 5.6953,-0.73047 0.1836,1.22265 -2.4258,0.25391 0.5312,3.36328 -1.4023,0.22266 -0.2344,-3.45703 -2.168,0.375 -0.1796,-1.25 z m 0,0"
         id="path735"
         style="fill:#eb008a;fill-opacity:1;fill-rule:nonzero;stroke:none" />
      <path
         d="m 1115.8008,180.08984 1.3984,2.89844 1.3008,-0.19922 0.1992,-2 0.8281,1.89063 1.1016,-0.26172 0.2734,-4.32813 -0.9023,0.0977 -0.098,2.80078 -0.832,-1.30078 -1.2383,0.19531 -0.1289,2.01563 -1.2031,-2.21094 -0.6992,0.40234 z m 0,0"
         id="path737"
         style="fill:#eb008a;fill-opacity:1;fill-rule:nonzero;stroke:none" />
      <path
         d="m 1123.3398,178.38672 c 0.9375,-0.23047 1.254,0.94922 1.254,0.94922 l -1.9297,0.23437 c 0,0 0.082,-1.03515 0.6757,-1.18359 m 2.5665,2.20312 -1.2969,0 c 0,0 -0.5,1 -1.3008,0.69922 -0.8008,-0.30078 -0.6836,-1.05078 -0.6836,-1.05078 l 3.1484,-0.39062 c 0,0 -0.5117,-2.71094 -3.0664,-2.0586 -1.7773,0.45703 -1.8906,4.45313 0.8008,4.19922 2.3555,-0.22266 2.3985,-1.39844 2.3985,-1.39844"
         id="path739"
         style="fill:#eb008a;fill-opacity:1;fill-rule:nonzero;stroke:none" />
      <path
         d="m 1128.1992,178.51172 c 0.6055,-0.0312 0.8516,0.72265 0.8516,0.72265 l -1.6172,0.19141 c 0,0 0.1562,-0.88672 0.7656,-0.91406 m 1.8946,1.76172 -0.8438,0.1289 c 0,0 -0.2812,1.3086 -1.082,1.00782 -0.7969,-0.29688 -0.6992,-1.39844 -0.6992,-1.39844 l 2.5585,-0.32422 c 0,0 -0.7578,-2.47656 -2.457,-1.77344 -1.7031,0.69922 -1.8945,4.41406 0.8008,4.19922 1.8516,-0.14844 1.7227,-1.83984 1.7227,-1.83984"
         id="path741"
         style="fill:#eb008a;fill-opacity:1;fill-rule:nonzero;stroke:none" />
      <path
         d="m 1089.8672,201.52734 c -1.2578,-0.49218 -2.8984,-1.88281 -4.4688,-3.19922 -1.7656,-1.47656 -3.1289,-2.80859 -4.9101,-4.26171 -0.8438,-0.6875 -3.2578,-3.40235 -4.3477,-3.44532 -1.1875,-0.0469 -3.8203,2.08985 -4.6718,2.76953 -3.1211,2.48047 -4.0821,3.28516 0.012,5.20313 6.3203,2.96484 12.1679,5.72266 20.0078,9.10156"
         id="path743"
         style="fill:#4cc2e6;fill-opacity:1;fill-rule:nonzero;stroke:none" />
    </g>
  </g>
</svg>
