<?xml version="1.0" encoding="UTF-8" standalone="no"?>
<!-- Created with Inkscape (http://www.inkscape.org/) -->

<svg
   xmlns:svg="http://www.w3.org/2000/svg"
   xmlns="http://www.w3.org/2000/svg"
   version="1.1"
   width="122.14905"
   height="175.15244"
   id="svg5004">
  <defs
     id="defs5006" />
  <path
     d="m 56.845701,174.70425 c 2.592775,1.15723 5.683588,-0.005 6.870113,-2.58301 L 121.59179,46.13003 c 1.18653,-2.578125 0.41505,-6.225587 -1.71386,-8.105462 L 78.559564,1.59878 c -2.1289,-1.87987502 -5.815425,-2.13867502 -8.188475,-0.58105 l -35.917963,23.5791 c -2.377937,1.557613 -3.378912,4.960938 -2.23145,7.558588 l 4.56055,10.317387 c 1.147463,2.597663 1.210938,6.367188 0.1416,8.374025 -1.069337,2.006838 -2.592775,5.8789 -3.388675,8.6084 l -14.067375,48.36425 c -0.791025,2.72461 -2.96875,4.45312 -4.829112,3.83301 -1.865225,-0.62011 -4.042963,1.1084 -4.8339749,3.83301 0,0 -9.80957477,33.80372 -9.8046872742539,33.80859 L 56.845701,174.70425 z m 0,0"
     id="path8492"
     style="fill:#eb008a;fill-opacity:1;fill-rule:nonzero;stroke:none" />
</svg>
