<?xml version="1.0" encoding="UTF-8" standalone="no"?>
<!-- Created with Inkscape (http://www.inkscape.org/) -->

<svg
   xmlns:svg="http://www.w3.org/2000/svg"
   xmlns="http://www.w3.org/2000/svg"
   version="1.1"
   width="88.906807"
   height="97.183609"
   id="svg5004">
  <defs
     id="defs5006" />
  <path
     d="m 30.254517,97.15197 c -2.792975,0.30274 -5.8838,-1.60156 -6.875,-4.22851 L 0.34240463,31.795532 c -0.991213,-2.62695 0.2441372,-5.8252 2.74413717,-7.1045 L 49.93713,0.66759396 c 2.5,-1.279288 6.127925,-0.664063 8.0664,1.36718704 l 29.301762,30.732426 c 1.938475,2.03125 2.148438,5.532225 0.458988,7.778325 l -6.694338,8.9209 c -1.684575,2.241212 -2.431637,6.289062 -1.655275,8.98925 l 0.04888,0.175787 c 0.776375,2.700188 -0.883787,4.736325 -3.681637,4.53125 L 42.652017,60.711544 c -2.802725,-0.205075 -4.179687,1.7334 -3.071287,4.311525 l 4.067387,9.438475 c 1.113275,2.578126 4.3164,4.526366 7.114263,4.326176 l 28.964837,-2.06055 c 2.802738,-0.2002 5.75195,1.84082 6.557613,4.53125 l 1.396487,4.67774 c 0.800788,2.69042 -0.825187,5.13671 -3.618162,5.43945 l -53.808588,5.77636 z m 0,0"
     id="path8576"
     style="fill:#e66e44;fill-opacity:1;fill-rule:nonzero;stroke:none" />
</svg>
