<?xml version="1.0" encoding="UTF-8" standalone="no"?>
<!-- Created with Inkscape (http://www.inkscape.org/) -->

<svg
   xmlns:svg="http://www.w3.org/2000/svg"
   xmlns="http://www.w3.org/2000/svg"
   version="1.1"
   width="95.595787"
   height="138.34482"
   id="svg5004">
  <defs
     id="defs5006" />
  <path
     d="m 41.822948,138.17222 c -2.71485,0.71777 -5.6543,-0.86914 -6.538087,-3.53515 L 0.2653362,28.846061 c -0.8789125,-2.666025 0.4980375,-5.78125 3.0615129,-6.923837 L 51.412786,0.48668614 c 2.563487,-1.147462 5.976562,-0.195312 7.578125,2.11424996 l 35.16603,50.6542999 c 1.60156,2.309575 1.43066,5.957025 -0.3711,8.105463 l -7.172855,8.54005 c -1.806638,2.148437 -2.68555,6.127925 -1.953125,8.837885 l 1.09375,4.0625 c 0.727537,2.71484 -0.395513,4.74609 -2.504888,4.52149 -2.104487,-0.22461 -6.123037,-0.53224 -8.925775,-0.6836 l -35.747075,-1.91406 c -2.802725,-0.15136 -4.116212,1.80176 -2.919912,4.34082 l 7.7246,16.372056 c 1.196287,2.53907 4.4629,4.39942 7.255862,4.13087 l 35.507813,-3.40333 c 2.79785,-0.26855 5.78125,1.70411 6.630865,4.375 l 2.583,8.11524 c 0.8545,2.67579 -0.66894,5.4541 -3.38379,6.17676 l -50.151363,13.33984 z m 0,0"
     id="path8596"
     style="fill:#54b87d;fill-opacity:1;fill-rule:nonzero;stroke:none" />
</svg>
