<?xml version="1.0" encoding="UTF-8" standalone="no"?>
<!-- Created with Inkscape (http://www.inkscape.org/) -->

<svg
   xmlns:svg="http://www.w3.org/2000/svg"
   xmlns="http://www.w3.org/2000/svg"
   version="1.1"
   width="121.30254"
   height="103.88156"
   id="svg5004">
  <defs
     id="defs5006" />
  <path
     d="m 24.778448,103.70738 c -2.827149,0.74219 -5.771474,-0.95702 -6.547849,-3.774408 L 0.19348552,34.356797 C -0.58287648,31.539422 1.0479855,28.468122 3.8165355,27.530622 L 84.236462,0.33335854 c 2.76855,-0.9375 6.51855,0.1709 8.334962,2.46582516 L 120.01771,37.462272 c 1.81152,2.294912 1.69433,5.942375 -0.26855,8.105462 l -7.79298,8.6084 c -1.96289,2.163088 -3.78417,5.273438 -4.04296,6.9043 -0.2588,1.635738 -2.73438,2.20215 -5.50294,1.259763 L 56.672987,46.778672 c -2.768563,-0.942375 -3.76465,0.317387 -2.2168,2.79785 l 11.347662,18.19825 c 1.54785,2.480462 5.205075,4.47265 8.125,4.433587 l 31.972641,-0.46875 c 2.9248,-0.044 5.73243,1.91895 6.24024,4.355475 0.50781,2.431638 -1.38672,5.034175 -4.21387,5.776363 L 24.778448,103.70738 z m 0,0"
     id="path8342"
     style="fill:#ffc700;fill-opacity:1;fill-rule:nonzero;stroke:none" />
</svg>
