<?xml version="1.0" encoding="UTF-8" standalone="no"?>
<!-- Created with Inkscape (http://www.inkscape.org/) -->

<svg
   xmlns:svg="http://www.w3.org/2000/svg"
   xmlns="http://www.w3.org/2000/svg"
   version="1.1"
   width="88.807144"
   height="130.00949"
   id="svg5004">
  <defs
     id="defs5006" />
  <path
     d="m 34.878169,129.82993 c -2.553712,0.71777 -5.234375,-0.78125 -5.961912,-3.33984 L 0.18578064,25.059425 c -0.717775,-2.553712 0.708013,-5.439462 3.17871296,-6.416025 L 49.697507,0.36703773 c 2.4707,-0.976563 5.654287,0.0635 7.075187,2.31444997 L 87.915283,52.007663 c 1.42089,2.2461 1.10839,5.688475 -0.6836,7.6416 l -7.128901,7.778325 c -1.796875,1.958 -2.675788,5.649412 -1.94825,8.203125 l 0.09275,0.3418 c 0.727537,2.558587 -0.747075,5.3125 -3.276363,6.127925 L 63.144744,85.9188 c -2.524412,0.810538 -3.759762,3.491213 -2.749025,5.942375 l 0.146488,0.35645 c 1.0205,2.45605 4.01855,4.36035 6.6748,4.243163 l 12.392575,-0.561525 c 2.65625,-0.122 5.244151,1.909187 5.756841,4.516597 l 1.88965,9.6875 c 0.5127,2.60743 -1.16212,5.32715 -3.71582,6.04982 l -48.662109,13.67675 z m 0,0"
     id="path8870"
     style="fill:#54b87d;fill-opacity:1;fill-rule:nonzero;stroke:none" />
</svg>
