<?xml version="1.0" encoding="UTF-8" standalone="no"?>
<!-- Created with Inkscape (http://www.inkscape.org/) -->

<svg
   xmlns:svg="http://www.w3.org/2000/svg"
   xmlns="http://www.w3.org/2000/svg"
   version="1.1"
   width="93.4226"
   height="176.64478"
   id="svg5004">
  <defs
     id="defs5006" />
  <path
     d="m 71.776257,176.61793 c 2.91015,0.29296 5.55175,-1.84571 5.874025,-4.75097 l 15.7373,-141.811528 c 0.322262,-2.905275 -1.616213,-6.2207 -4.306638,-7.363287 L 36.917857,0.48999954 c -2.68555,-1.147461 -6.372075,-0.209961 -8.188475,2.08495996 L 1.2830945,37.238045 c -1.81152495,2.294925 -1.68946245,5.942387 0.26855,8.11035 l 7.7978499,8.603512 c 1.9628876,2.167975 3.2421876,5.8252 2.8515626,8.129888 -0.395513,2.304687 1.6748,4.086912 4.594725,3.955075 l 45.703125,-2.055663 c 2.919925,-0.131837 5.107425,2.143563 4.868162,5.0586 l -5.292962,63.466783 c -0.239263,2.91505 -2.788088,4.85353 -5.659188,4.30665 0,0 -42.6123,-8.11035 -42.6123,-8.11035 l -2.041012,0 c -2.9199246,0 -5.2246125,2.38769 -5.1123125,5.30762 0,0 1.3671879,36.19628 1.3671879,36.19628 l 63.7597746,6.41114 z m 0,0"
     id="path8354"
     style="fill:#eb008a;fill-opacity:1;fill-rule:nonzero;stroke:none" />
</svg>
