<?xml version="1.0" encoding="UTF-8" standalone="no"?>
<!-- Created with Inkscape (http://www.inkscape.org/) -->

<svg
   xmlns:svg="http://www.w3.org/2000/svg"
   xmlns="http://www.w3.org/2000/svg"
   version="1.1"
   width="179.5677"
   height="180.45177"
   id="svg5004">
  <defs
     id="defs5006" />
  <path
     d="m 7.0525603,178.46379 c -3.969725,-0.0537 -7.13867495,-3.34473 -7.05077495,-7.30956 L 3.5222853,13.776289 C 3.6101653,9.8114515 6.9207233,6.4276645 10.885573,6.2616515 L 158.44905,0.00676448 c 3.95996,-0.166013 8.31543,2.74413702 9.67285,6.47461202 l 10.97656,30.1171875 c 1.35743,3.725587 -0.33202,8.417962 -3.75488,10.4248 l -13.58887,7.96875 c -3.42285,2.006837 -6.01562,6.884762 -5.76171,10.844725 l 4.02344,62.675791 c 0.2539,3.95996 -2.11426,7.08496 -5.26368,6.94823 -3.14941,-0.13671 -7.08496,2.70508 -8.73535,6.3086 l -1.44043,3.14453 c -1.65039,3.60351 0.22461,6.22559 4.16992,5.8252 l 6.49414,-0.65919 c 3.94044,-0.40039 7.25097,2.51954 7.34375,6.48438 l 0.39062,16.77246 c 0.0927,3.96485 -3.07616,7.16797 -7.04101,7.11426 L 7.0525603,178.46379 z m 0,0"
     id="path581"
     style="fill:#e66e33;fill-opacity:1;fill-rule:nonzero;stroke:none" />
</svg>
