<?xml version="1.0" encoding="UTF-8" standalone="no"?>
<!-- Created with Inkscape (http://www.inkscape.org/) -->

<svg
   xmlns:svg="http://www.w3.org/2000/svg"
   xmlns="http://www.w3.org/2000/svg"
   version="1.1"
   width="178.29832"
   height="48.533001"
   id="svg5004">
  <defs
     id="defs5006" />
  <g
     transform="matrix(1.25,0,0,1.25,-825.0526,-595.00489)"
     id="g9884">
    <path
       d="m 802.67187,481.80078 c 0.17579,-3.16797 -2.28125,-5.76172 -5.45703,-5.76172 l -132.23828,0 c -3.17578,0 -5.36328,2.5625 -4.86328,5.69922 l 4.39844,27.65234 c 0.5,3.13282 3.5,5.57813 6.67187,5.4336 l 124.26563,-5.6875 c 3.16797,-0.14453 5.90234,-2.85547 6.07422,-6.02344 l 1.14843,-21.3125 z m 0,0"
       id="path587"
       style="fill:#000000;fill-opacity:1;fill-rule:nonzero;stroke:none" />
    <path
       d="m 753.35156,476.00391 31.76953,0.0547 -13.78906,14.05078 -17.98047,-14.10546 z m 0,0"
       id="path591"
       style="fill:#ffffff;fill-opacity:1;fill-rule:nonzero;stroke:none" />
    <path
       d="m 766.14062,476.10547 8.26172,0 -2.36328,5.03906 3.78125,6.68359 -6.25781,3.41797 -3.26563,-2.86718 2.91016,-7.08204 -3.06641,-5.1914 z m 0,0"
       id="path593"
       style="fill:#000000;fill-opacity:1;fill-rule:nonzero;stroke:none" />
  </g>
</svg>
