<?xml version="1.0" encoding="UTF-8" standalone="no"?>
<!-- Created with Inkscape (http://www.inkscape.org/) -->

<svg
   xmlns:svg="http://www.w3.org/2000/svg"
   xmlns="http://www.w3.org/2000/svg"
   version="1.1"
   width="33.84343"
   height="43.721802"
   id="svg5004">
  <defs
     id="defs5006" />
  <g
     transform="matrix(1.25,0,0,1.25,-346.83105,-212.06542)"
     id="g9694">
    <path
       d="m 277.46484,174.37891 0.65625,25.60156 c 0.0625,2.41015 2.08594,4.4414 4.4961,4.5039 l 5.03515,0.14063 c 2.41016,0.0664 4.46875,-0.56641 4.57422,-1.41016 0.10547,-0.84375 -1.6875,-2.13672 -3.98437,-2.87109 l -1.23047,-0.39453 c -2.29688,-0.73438 -4.14453,-3.3086 -4.10547,-5.72266 l 0.3125,-19.08203"
       id="path8296"
       style="fill:#000000;fill-opacity:1;fill-rule:nonzero;stroke:none" />
    <path
       d="m 289.77344,169.65234 0.65625,25.60547 c 0.0586,2.41016 2.08203,4.44141 4.49609,4.50781 l 5.03125,0.13672 c 2.41406,0.0664 4.47266,-0.5664 4.57813,-1.41015 0.10546,-0.84375 -1.6875,-2.13672 -3.98438,-2.8711 l -1.23437,-0.39453 c -2.29688,-0.73437 -4.14454,-3.3125 -4.10547,-5.72265 l 0.3125,-19.08204"
       id="path8298"
       style="fill:#000000;fill-opacity:1;fill-rule:nonzero;stroke:none" />
  </g>
</svg>
