<?xml version="1.0" encoding="UTF-8" standalone="no"?>
<!-- Created with Inkscape (http://www.inkscape.org/) -->

<svg
   xmlns:svg="http://www.w3.org/2000/svg"
   xmlns="http://www.w3.org/2000/svg"
   version="1.1"
   width="42.375881"
   height="36.774414"
   id="svg5004">
  <defs
     id="defs5006" />
  <g
     transform="matrix(1.25,0,0,1.25,-1082.0284,-584.74902)"
     id="g9789">
    <path
       d="m 892.82031,474.99609 -21.38281,3.97657 c -2.01172,0.375 -4.05469,-0.94922 -4.53516,-2.9375 l -1.0039,-4.15625 c -0.48047,-1.99219 -0.31641,-3.8125 0.36328,-4.05079 0.68359,-0.23828 2.07422,1.02344 3.08984,2.80079 l 0.54297,0.95312 c 1.01953,1.78125 3.48438,2.85938 5.48047,2.39844 l 15.79297,-3.62891"
       id="path8804"
       style="fill:#000000;fill-opacity:1;fill-rule:nonzero;stroke:none" />
    <path
       d="m 899.52344,479.53516 c -1.47657,0.22656 -2.96875,0.30078 -4.44532,0.53515 -1.23046,0.19141 -3.03515,0.21485 -4.07031,1.01953 -1.12109,0.875 -1.0625,3.24219 -1.32422,4.54297 -0.3789,1.89844 -0.76172,3.79688 -1.14062,5.69922 l -1.17578,5.88672 -7.91407,-1.14453 c -2.02734,-0.29688 -3.66015,-1.125 -3.625,-1.84766 0.0352,-0.72265 1.71875,-1.54297 3.75,-1.82422 l 4.77344,-0.66406 c 0.32813,-2.07422 0.65235,-4.14844 0.97656,-6.22266 0.47657,-3.04296 0.14063,-7.44921 3.41016,-8.91406 1.28906,-0.57812 2.51172,-0.66797 3.91406,-0.68359 1.70313,-0.0195 3.28516,-0.60156 4.94922,-0.66406"
       id="path8816"
       style="fill:#000000;fill-opacity:1;fill-rule:nonzero;stroke:none" />
  </g>
</svg>
