<?xml version="1.0" encoding="UTF-8" standalone="no"?>
<!-- Created with Inkscape (http://www.inkscape.org/) -->

<svg
   xmlns:svg="http://www.w3.org/2000/svg"
   xmlns="http://www.w3.org/2000/svg"
   version="1.1"
   width="36.942677"
   height="36.906803"
   id="svg5004">
  <defs
     id="defs5006" />
  <g
     transform="matrix(1.25,0,0,1.25,-939.82869,-585.39085)"
     id="g9770">
    <path
       d="m 757.38281,476.84766 -5.16015,11.6875 c -0.85938,1.94921 -0.125,4.51953 1.6289,5.72265 l 3.66016,2.50781 c 1.7539,1.19922 3.71875,1.42969 4.37109,0.50391 0.64844,-0.92187 -0.20703,-2.71875 -1.91015,-3.99219 L 759.4375,492.875 c -1.70313,-1.27344 -2.12891,-3.76172 -0.94922,-5.52734 l 4.3125,-6.44141 c 1.17969,-1.76563 0.77344,-4.27734 -0.90234,-5.58203 l -3.75782,-2.91797"
       id="path8864"
       style="fill:#000000;fill-opacity:1;fill-rule:nonzero;stroke:none" />
    <path
       d="m 754.42969,477.56641 5.02734,-2.53907 c 1.89844,-0.95703 4.29688,-0.22656 5.33594,1.62891 l 4.6875,8.35937 c 1.03906,1.85157 3.43359,2.57813 5.33203,1.61329 l 3.95312,-2.01172 c 1.89454,-0.96485 3.03125,-2.58203 2.53516,-3.59766 -0.5,-1.01562 -2.48828,-1.11719 -4.42187,-0.23437 l -0.60938,0.28125 c -1.93359,0.88281 -4.32031,0.0625 -5.30469,-1.81641 l -3.59375,-6.86719 c -0.98437,-1.88281 -2.60937,-3.67578 -3.60937,-3.98437 -1,-0.3086 -3.35547,0.24218 -5.24219,1.22656 l -6.44922,3.35937"
       id="path8876"
       style="fill:#000000;fill-opacity:1;fill-rule:nonzero;stroke:none" />
  </g>
</svg>
