<?xml version="1.0" encoding="UTF-8" standalone="no"?>
<!-- Created with Inkscape (http://www.inkscape.org/) -->

<svg
   xmlns:svg="http://www.w3.org/2000/svg"
   xmlns="http://www.w3.org/2000/svg"
   version="1.1"
   width="44.75555"
   height="28.773897"
   id="svg5004">
  <defs
     id="defs5006" />
  <g
     transform="matrix(1.25,0,0,1.25,-1220.6257,-258.52051)"
     id="g9713">
    <path
       d="m 1001.6562,213.33203 c 0.047,1.67969 0.1172,5.71875 0.1407,6.10938 0.043,0.8789 0.625,0.8789 1.7812,0.78515 1.5977,-0.1289 1.2188,-0.008 2.8125,-0.13672 1.6758,-0.13672 2.7891,-0.21093 4.4649,-0.34765 l 1.2968,6.71484 c 0.3282,1.71094 0.1094,3.22656 -0.4843,3.36719 -0.6016,0.14062 -1.6641,-1.04688 -2.3711,-2.64063 l -1.6602,-3.7539 c -1.6211,0.19922 -1.2656,0.14843 -2.8906,0.34765 -1.4336,0.17969 -0.5547,0.13282 -1.9922,0.21094 -1.0156,0.0508 -2.6875,0.26953 -3.61328,-0.21484 -1.32031,-0.6875 -1.72656,-3.16407 -2.10937,-4.44922 -0.61719,-2.0586 -0.94141,-4.19922 -1.45313,-6.26563"
       id="path8400"
       style="fill:#000000;fill-opacity:1;fill-rule:nonzero;stroke:none" />
    <path
       d="m 987.16797,206.81641 -0.47266,18.5 c -0.043,1.74218 -1.5039,3.20703 -3.25,3.2539 l -3.63672,0.10156 c -1.74218,0.0469 -3.23047,-0.41015 -3.30468,-1.01953 -0.0781,-0.60937 1.21875,-1.54297 2.8789,-2.07422 l 0.89063,-0.28515 c 1.66015,-0.53125 2.99609,-2.39453 2.96484,-4.13672 l -0.22266,-13.78906"
       id="path8402"
       style="fill:#000000;fill-opacity:1;fill-rule:nonzero;stroke:none" />
  </g>
</svg>
