<?xml version="1.0" encoding="UTF-8" standalone="no"?>
<!-- Created with Inkscape (http://www.inkscape.org/) -->

<svg
   xmlns:svg="http://www.w3.org/2000/svg"
   xmlns="http://www.w3.org/2000/svg"
   version="1.1"
   width="45.303143"
   height="42.379169"
   id="svg5004">
  <defs
     id="defs5006" />
  <g
     transform="matrix(1.25,0,0,1.25,-215.19491,-300.26855)"
     id="g9675">
    <path
       d="m 208.39844,244.79297 -0.63282,24.8164 c -0.0586,2.33985 -2.01953,4.30469 -4.35937,4.36719 l -4.87891,0.13672 c -2.33593,0.0664 -4.33593,-0.55078 -4.4375,-1.36719 -0.10156,-0.82031 1.63672,-2.07031 3.86328,-2.78515 l 1.19532,-0.37891 c 2.22656,-0.71484 4.01562,-3.21094 3.98047,-5.54687 l -0.30469,-18.5"
       id="path8412"
       style="fill:#000000;fill-opacity:1;fill-rule:nonzero;stroke:none" />
    <path
       d="m 186.47266,240.21484 -0.63672,24.81641 c -0.0586,2.33984 -2.01953,4.30469 -4.35938,4.36719 l -4.8789,0.13672 c -2.33985,0.0664 -4.33594,-0.55079 -4.4375,-1.36719 -0.10157,-0.82031 1.63671,-2.07031 3.86328,-2.78516 L 177.21875,265 c 2.22656,-0.71094 4.01562,-3.20703 3.98047,-5.54688 l -0.30469,-18.49609"
       id="path8414"
       style="fill:#000000;fill-opacity:1;fill-rule:nonzero;stroke:none" />
  </g>
</svg>
