<?xml version="1.0" encoding="UTF-8" standalone="no"?>
<!-- Created with Inkscape (http://www.inkscape.org/) -->

<svg
   xmlns:svg="http://www.w3.org/2000/svg"
   xmlns="http://www.w3.org/2000/svg"
   version="1.1"
   width="37.730309"
   height="41.636311"
   id="svg5004">
  <defs
     id="defs5006" />
  <g
     transform="matrix(1.25,0,0,1.25,-415.07772,-631.2207)"
     id="g9846">
    <path
       d="m 347.92969,508.96094 0.63672,24.8164 c 0.0586,2.33594 2.01953,4.30469 4.35546,4.36719 l 4.88282,0.13672 c 2.33984,0.0625 4.33203,-0.55469 4.4375,-1.37109 0.10156,-0.81641 -1.63672,-2.07032 -3.86328,-2.78125 l -1.19532,-0.38282 c -2.22656,-0.71093 -4.01953,-3.20703 -3.98047,-5.54687 l 0.30469,-18.4961"
       id="path755"
       style="fill:#000000;fill-opacity:1;fill-rule:nonzero;stroke:none" />
    <path
       d="m 346.37891,504.97656 -0.63672,24.81641 c -0.0586,2.33594 -2.01953,4.30469 -4.35547,4.36719 l -4.88281,0.13671 c -2.33594,0.0625 -4.33204,-0.55078 -4.4375,-1.37109 -0.10157,-0.81641 1.63671,-2.07031 3.86328,-2.78125 l 1.19531,-0.38281 c 2.22656,-0.71094 4.01953,-3.20703 3.98047,-5.54688 l -0.30078,-18.49609"
       id="path757"
       style="fill:#000000;fill-opacity:1;fill-rule:nonzero;stroke:none" />
  </g>
</svg>
