<?xml version="1.0" encoding="UTF-8" standalone="no"?>
<!-- Created with Inkscape (http://www.inkscape.org/) -->

<svg
   xmlns:svg="http://www.w3.org/2000/svg"
   xmlns="http://www.w3.org/2000/svg"
   version="1.1"
   width="27.374722"
   height="25.438755"
   id="svg5004">
  <defs
     id="defs5006" />
  <g
     transform="matrix(1.25,0,0,1.25,-944.79493,-247.22656)"
     id="g9827">
    <path
       d="m 755.83594,197.78125 0.4414,17.20312 c 0.0391,1.6211 1.39844,3.01172 3.01953,3.08594 l 1.14063,0.0547 c 1.62109,0.0781 3.02344,-0.48438 3.11719,-1.25 0.0937,-0.76563 -0.79297,-1.71094 -1.96875,-2.10156 -1.17969,-0.38672 -2.1211,-2.03125 -2.09375,-3.65235 l 0.20703,-12.82422"
       id="path659"
       style="fill:#000000;fill-opacity:1;fill-rule:nonzero;stroke:none" />
    <path
       d="m 759.25,200.42187 12.07422,12.26563 c 1.14062,1.15234 2.99219,1.14453 4.11719,-0.0234 l 0.76953,-0.80078 c 1.125,-1.16406 1.76953,-2.5 1.4375,-2.96094 -0.33594,-0.46093 -1.51953,-0.4375 -2.625,0.0547 -1.10938,0.49219 -2.90625,-0.0898 -3.99219,-1.29297 l -8.60938,-9.5039"
       id="path661"
       style="fill:#000000;fill-opacity:1;fill-rule:nonzero;stroke:none" />
  </g>
</svg>
