<?xml version="1.0" encoding="UTF-8" standalone="no"?>
<!-- Created with Inkscape (http://www.inkscape.org/) -->

<svg
   xmlns:svg="http://www.w3.org/2000/svg"
   xmlns="http://www.w3.org/2000/svg"
   version="1.1"
   width="47.543362"
   height="42.906891"
   id="svg5004">
  <defs
     id="defs5006" />
  <g
     transform="matrix(1.25,0,0,1.25,-1309.1365,-624.43359)"
     id="g9865">
    <path
       d="m 1060.4336,501.25 -12.5508,22.32422 c -1.1797,2.10547 -0.4805,4.88281 1.5547,6.17578 l 4.2539,2.69531 c 2.0352,1.29297 4.1289,1.80078 4.6524,1.13281 0.5234,-0.67187 -0.3555,-2.69921 -1.9532,-4.50781 l -0.8554,-0.96875 c -1.5977,-1.80859 -1.8633,-4.96484 -0.5938,-7.01562 l 10.043,-16.23438"
       id="path417"
       style="fill:#000000;fill-opacity:1;fill-rule:nonzero;stroke:none" />
    <path
       d="m 1070.5742,499.54687 0.6563,25.60157 c 0.062,2.41015 2.0859,4.4414 4.4961,4.50781 l 5.0351,0.13672 c 2.4102,0.0664 4.4688,-0.56641 4.5781,-1.41016 0.1016,-0.84375 -1.6914,-2.13672 -3.9882,-2.87109 l -1.2305,-0.39453 c -2.2969,-0.73438 -4.1445,-3.3125 -4.1055,-5.72266 l 0.3125,-19.08203"
       id="path419"
       style="fill:#000000;fill-opacity:1;fill-rule:nonzero;stroke:none" />
  </g>
</svg>
