<?xml version="1.0" encoding="UTF-8" standalone="no"?>
<!-- Created with Inkscape (http://www.inkscape.org/) -->

<svg
   xmlns:svg="http://www.w3.org/2000/svg"
   xmlns="http://www.w3.org/2000/svg"
   version="1.1"
   width="74.896019"
   height="39.262417"
   id="svg5004">
  <defs
     id="defs5006" />
  <g
     transform="matrix(1.25,0,0,1.25,-656.30791,-595.50292)"
     id="g9732">
    <path
       d="m 528.30078,476.40234 -3.21875,25.22266 c -0.30469,2.37891 1.375,4.67187 3.73047,5.10156 l 4.91797,0.89453 c 2.35547,0.42578 4.47265,0.11719 4.70312,-0.69531 0.23047,-0.8125 -1.33203,-2.34766 -3.47656,-3.41797 l -1.14844,-0.57031 c -2.14453,-1.07031 -3.5664,-3.875 -3.16406,-6.23828 l 3.1875,-18.67578"
       id="path8730"
       style="fill:#000000;fill-opacity:1;fill-rule:nonzero;stroke:none" />
    <path
       d="m 560.19141,478.08984 10.61328,23.10938 c 1,2.17578 3.64062,3.23437 5.86718,2.35156 l 4.64454,-1.84375 c 2.22656,-0.88281 3.85546,-2.26562 3.625,-3.07812 -0.23438,-0.8086 -2.375,-1.28516 -4.76172,-1.0586 l -1.27344,0.1211 c -2.38672,0.22656 -5.07813,-1.39844 -5.98828,-3.61719 l -7.17578,-17.53516"
       id="path8732"
       style="fill:#000000;fill-opacity:1;fill-rule:nonzero;stroke:none" />
  </g>
</svg>
