<?xml version="1.0" encoding="UTF-8" standalone="no"?>
<!-- Created with Inkscape (http://www.inkscape.org/) -->

<svg
   xmlns:svg="http://www.w3.org/2000/svg"
   xmlns="http://www.w3.org/2000/svg"
   version="1.1"
   width="54.307835"
   height="44.030727"
   id="svg5004">
  <defs
     id="defs5006" />
  <g
     transform="matrix(1.25,0,0,1.25,-933.76946,-917.03614)"
     id="g9808">
    <path
       d="m 772.84375,740.37891 -23.41797,13.69531 c -2.20703,1.28515 -3.05469,4.19922 -1.88281,6.47265 l 2.4414,4.73829 c 1.16797,2.27343 2.8086,3.85937 3.64454,3.52343 0.83984,-0.33203 1.11718,-2.65625 0.6289,-5.16406 l -0.26562,-1.34375 c -0.49219,-2.50781 0.95312,-5.53516 3.21484,-6.73437 l 17.86719,-9.45704"
       id="path8626"
       style="fill:#000000;fill-opacity:1;fill-rule:nonzero;stroke:none" />
    <path
       d="m 774.82031,733.62891 0.69141,27.12109 c 0.0664,2.55469 2.20703,4.70312 4.76172,4.77344 l 5.33593,0.14843 c 2.55469,0.0703 4.73438,-0.60156 4.84766,-1.49609 0.11328,-0.89453 -1.78906,-2.26562 -4.22266,-3.04297 l -1.30468,-0.41797 c -2.42969,-0.77734 -4.38672,-3.5039 -4.34766,-6.0625 l 0.33594,-20.21093"
       id="path8628"
       style="fill:#000000;fill-opacity:1;fill-rule:nonzero;stroke:none" />
  </g>
</svg>
