<?xml version="1.0" encoding="UTF-8" standalone="no"?>
<!-- Created with Inkscape (http://www.inkscape.org/) -->

<svg
   xmlns:svg="http://www.w3.org/2000/svg"
   xmlns="http://www.w3.org/2000/svg"
   version="1.1"
   width="65.296791"
   height="41.020176"
   id="svg5004">
  <defs
     id="defs5006" />
  <g
     transform="matrix(1.25,0,0,1.25,-372.72574,-588.99902)"
     id="g9751">
    <path
       d="m 315.48437,471.29297 c -2.60937,2.08203 -5.89062,3.60547 -7.90234,6.36328 -2.53125,3.47266 -0.85937,7.52734 -0.66797,11.44531 0.20313,4.29297 -2.00781,11.22266 -7.63672,9.55078 -2.89453,-0.85547 0.76172,-5.03906 1.59375,-6.21093 1.875,-2.64844 1.64063,-4.00782 1.11328,-7.125 -1.10156,-6.51954 1.78125,-9.21094 5.50782,-14.11719"
       id="path8762"
       style="fill:#000000;fill-opacity:1;fill-rule:nonzero;stroke:none" />
    <path
       d="m 339.99609,474.52344 c 0.10157,3.94531 0.20313,7.88672 0.30469,11.83203 0.0742,2.90625 -0.0703,5.91406 0.23047,8.80859 0.44141,4.27735 3.66797,10.79688 8.98437,8.29688 2.73047,-1.28125 -1.51171,-4.86719 -2.51171,-5.90235 -2.25,-2.33593 -2.22266,-3.71484 -2.17188,-6.875 0.0859,-5.16015 0.16797,-10.32031 0.25391,-15.48047"
       id="path8764"
       style="fill:#000000;fill-opacity:1;fill-rule:nonzero;stroke:none" />
  </g>
</svg>
