<?xml version="1.0" encoding="UTF-8" standalone="no"?>
<!-- Created with Inkscape (http://www.inkscape.org/) -->

<svg
   xmlns:dc="http://purl.org/dc/elements/1.1/"
   xmlns:cc="http://creativecommons.org/ns#"
   xmlns:rdf="http://www.w3.org/1999/02/22-rdf-syntax-ns#"
   xmlns:svg="http://www.w3.org/2000/svg"
   xmlns="http://www.w3.org/2000/svg"
   xmlns:sodipodi="http://sodipodi.sourceforge.net/DTD/sodipodi-0.dtd"
   xmlns:inkscape="http://www.inkscape.org/namespaces/inkscape"
   version="1.1"
   width="121.30254"
   height="103.88156"
   id="svg5004"
   inkscape:version="0.47 r22583"
   sodipodi:docname="laughing.svg">
  <metadata
     id="metadata7">
    <rdf:RDF>
      <cc:Work
         rdf:about="">
        <dc:format>image/svg+xml</dc:format>
        <dc:type
           rdf:resource="http://purl.org/dc/dcmitype/StillImage" />
      </cc:Work>
    </rdf:RDF>
  </metadata>
  <sodipodi:namedview
     pagecolor="#ffffff"
     bordercolor="#666666"
     borderopacity="1"
     objecttolerance="10"
     gridtolerance="10"
     guidetolerance="10"
     inkscape:pageopacity="0"
     inkscape:pageshadow="2"
     inkscape:window-width="1680"
     inkscape:window-height="1024"
     id="namedview5"
     showgrid="false"
     inkscape:zoom="2.271818"
     inkscape:cx="60.651272"
     inkscape:cy="51.060428"
     inkscape:window-x="0"
     inkscape:window-y="0"
     inkscape:window-maximized="1"
     inkscape:current-layer="svg5004" />
  <defs
     id="defs5006">
    <inkscape:perspective
       sodipodi:type="inkscape:persp3d"
       inkscape:vp_x="0 : 51.940781 : 1"
       inkscape:vp_y="0 : 1000 : 0"
       inkscape:vp_z="121.30254 : 51.940781 : 1"
       inkscape:persp3d-origin="60.651272 : 34.627187 : 1"
       id="perspective9" />
    <inkscape:perspective
       id="perspective3598"
       inkscape:persp3d-origin="12.058804 : 3.7325967 : 1"
       inkscape:vp_z="24.117607 : 5.5988951 : 1"
       inkscape:vp_y="0 : 1000 : 0"
       inkscape:vp_x="0 : 5.5988951 : 1"
       sodipodi:type="inkscape:persp3d" />
  </defs>
  <path
     d="m 24.778448,103.70738 c -2.827149,0.74219 -5.771474,-0.95702 -6.547849,-3.774408 L 0.19348552,34.356797 C -0.58287648,31.539422 1.0479855,28.468122 3.8165355,27.530622 L 84.236462,0.33335854 c 2.76855,-0.9375 6.51855,0.1709 8.334962,2.46582516 L 120.01771,37.462272 c 1.81152,2.294912 1.69433,5.942375 -0.26855,8.105462 l -7.79298,8.6084 c -1.96289,2.163088 -3.78417,5.273438 -4.04296,6.9043 -0.2588,1.635738 -2.73438,2.20215 -5.50294,1.259763 L 56.672987,46.778672 c -2.768563,-0.942375 -3.76465,0.317387 -2.2168,2.79785 l 11.347662,18.19825 c 1.54785,2.480462 5.205075,4.47265 8.125,4.433587 l 31.972641,-0.46875 c 2.9248,-0.044 5.73243,1.91895 6.24024,4.355475 0.50781,2.431638 -1.38672,5.034175 -4.21387,5.776363 L 24.778448,103.70738 z m 0,0"
     id="path8342"
     style="fill:#ffc700;fill-opacity:1;fill-rule:nonzero;stroke:none" />
  <g
     id="g9427"
     transform="matrix(1.25,0,0,1.25,-428.79148,-91.469254)">
    <path
       style="fill:#232323;fill-opacity:1;fill-rule:nonzero;stroke:none"
       id="path627"
       d="m 403.6875,91.273438 c -0.19922,2.007812 -1.98047,3.464843 -3.98438,3.265624 -2,-0.195312 -3.46484,-1.976562 -3.26562,-3.980468 0.19531,-2.003906 1.98047,-3.464844 3.98437,-3.265625 2,0.195312 3.46094,1.980469 3.26563,3.980469" />
    <path
       style="fill:#232323;fill-opacity:1;fill-rule:nonzero;stroke:none"
       id="path629"
       d="m 415.69531,89.597656 c -0.19531,2.003906 -1.98047,3.464844 -3.98047,3.269532 -2.0039,-0.199219 -3.46484,-1.980469 -3.26953,-3.988282 0.19922,-1.996094 1.98047,-3.460937 3.98438,-3.261718 2,0.195312 3.46484,1.980468 3.26562,3.980468" />
  </g>
</svg>
