<?xml version="1.0" encoding="UTF-8" standalone="no"?>
<!-- Created with Inkscape (http://www.inkscape.org/) -->

<svg
   xmlns:svg="http://www.w3.org/2000/svg"
   xmlns="http://www.w3.org/2000/svg"
   version="1.1"
   width="24.117607"
   height="11.19779"
   id="svg5004">
  <defs
     id="defs5006" />
  <g
     transform="matrix(1.25,0,0,1.25,-495.5242,-106.99881)"
     id="g9427">
    <path
       d="m 403.6875,91.273438 c -0.19922,2.007812 -1.98047,3.464843 -3.98438,3.265624 -2,-0.195312 -3.46484,-1.976562 -3.26562,-3.980468 0.19531,-2.003906 1.98047,-3.464844 3.98437,-3.265625 2,0.195312 3.46094,1.980469 3.26563,3.980469"
       id="path627"
       style="fill:#232323;fill-opacity:1;fill-rule:nonzero;stroke:none" />
    <path
       d="m 415.69531,89.597656 c -0.19531,2.003906 -1.98047,3.464844 -3.98047,3.269532 -2.0039,-0.199219 -3.46484,-1.980469 -3.26953,-3.988282 0.19922,-1.996094 1.98047,-3.460937 3.98438,-3.261718 2,0.195312 3.46484,1.980468 3.26562,3.980468"
       id="path629"
       style="fill:#232323;fill-opacity:1;fill-rule:nonzero;stroke:none" />
  </g>
</svg>
